<svg xmlns="http://www.w3.org/2000/svg" xmlns:xlink="http://www.w3.org/1999/xlink" width="976" height="339.5" viewBox="0 0 976 339.5"><defs><filter id="a" x="307.5" y="126" width="232" height="107" filterUnits="userSpaceOnUse"><feOffset dy="3" input="SourceAlpha"/><feGaussianBlur stdDeviation="7.5" result="b"/><feFlood flood-color="#ffc747" flood-opacity="0.29"/><feComposite operator="in" in2="b"/><feComposite in="SourceGraphic"/></filter><filter id="c" x="536.5" y="126" width="232" height="107" filterUnits="userSpaceOnUse"><feOffset dy="3" input="SourceAlpha"/><feGaussianBlur stdDeviation="7.5" result="d"/><feFlood flood-color="#ffc747" flood-opacity="0.29"/><feComposite operator="in" in2="d"/><feComposite in="SourceGraphic"/></filter><filter id="e" x="79.5" y="226" width="689" height="107" filterUnits="userSpaceOnUse"><feOffset dy="3" input="SourceAlpha"/><feGaussianBlur stdDeviation="7.5" result="f"/><feFlood flood-color="#ffc747" flood-opacity="0.29"/><feComposite operator="in" in2="f"/><feComposite in="SourceGraphic"/></filter><clipPath id="g"><rect width="232" height="107" fill="none"/></clipPath><filter id="h" x="79.5" y="126" width="232" height="107" filterUnits="userSpaceOnUse"><feOffset dy="3" input="SourceAlpha"/><feGaussianBlur stdDeviation="7.5" result="i"/><feFlood flood-color="#ffc747" flood-opacity="0.29"/><feComposite operator="in" in2="i"/><feComposite in="SourceGraphic"/></filter><clipPath id="j"><rect width="663" height="107" fill="none"/></clipPath><filter id="l" x="79.5" y="0" width="232" height="107" filterUnits="userSpaceOnUse"><feOffset dy="3" input="SourceAlpha"/><feGaussianBlur stdDeviation="7.5" result="m"/><feFlood flood-color="#ffc747" flood-opacity="0.29"/><feComposite operator="in" in2="m"/><feComposite in="SourceGraphic"/></filter><filter id="o" x="305.5" y="0" width="232" height="107" filterUnits="userSpaceOnUse"><feOffset dy="3" input="SourceAlpha"/><feGaussianBlur stdDeviation="7.5" result="p"/><feFlood flood-color="#ffc747" flood-opacity="0.29"/><feComposite operator="in" in2="p"/><feComposite in="SourceGraphic"/></filter><filter id="r" x="531.5" y="0" width="232" height="107" filterUnits="userSpaceOnUse"><feOffset dy="3" input="SourceAlpha"/><feGaussianBlur stdDeviation="7.5" result="s"/><feFlood flood-color="#ffc747" flood-opacity="0.29"/><feComposite operator="in" in2="s"/><feComposite in="SourceGraphic"/></filter><clipPath id="t"><rect width="1" height="64" fill="none"/></clipPath></defs><g transform="translate(-119 -138.5)"><rect width="976" height="226" rx="15" transform="translate(119 252)" fill="#f5f5f5"/><g transform="matrix(1, 0, 0, 1, 119, 138.5)" filter="url(#a)"><rect width="187" height="62" rx="31" transform="translate(330 145.5)" fill="#ffc747"/></g><g transform="matrix(1, 0, 0, 1, 119, 138.5)" filter="url(#c)"><rect width="187" height="62" rx="31" transform="translate(559 145.5)" fill="#ffc747"/></g><g transform="matrix(1, 0, 0, 1, 119, 138.5)" filter="url(#e)"><rect width="644" height="62" rx="31" transform="translate(102 245.5)" fill="#ffc747"/></g><g transform="translate(198.5 264.5)" clip-path="url(#g)"><g transform="matrix(1, 0, 0, 1, -79.5, -126)" filter="url(#h)"><rect width="187" height="62" rx="31" transform="translate(102 145.5)" fill="#ffc747"/></g><path d="M-25.1-2.4h-5.2L-31.288,0h-2.656l4.992-11.2h2.56L-21.384,0H-24.1Zm-.816-1.968-1.776-4.288-1.776,4.288ZM-15.16-8.736a3.542,3.542,0,0,1,2.584.96,3.807,3.807,0,0,1,.984,2.848V0h-2.5V-4.544a2.244,2.244,0,0,0-.448-1.528,1.643,1.643,0,0,0-1.3-.5,1.986,1.986,0,0,0-1.5.584,2.418,2.418,0,0,0-.56,1.736V0h-2.5V-8.608h2.384V-7.6a3.31,3.31,0,0,1,1.232-.84A4.292,4.292,0,0,1-15.16-8.736ZM-.472-11.872V0H-2.856V-.992A3.292,3.292,0,0,1-5.544.128a4.47,4.47,0,0,1-2.2-.544A3.9,3.9,0,0,1-9.288-1.968,4.731,4.731,0,0,1-9.848-4.3a4.731,4.731,0,0,1,.56-2.336A3.9,3.9,0,0,1-7.744-8.192a4.47,4.47,0,0,1,2.2-.544A3.274,3.274,0,0,1-2.968-7.7v-4.176ZM-5.112-1.92a2.086,2.086,0,0,0,1.568-.648A2.4,2.4,0,0,0-2.92-4.3,2.4,2.4,0,0,0-3.544-6.04a2.086,2.086,0,0,0-1.568-.648A2.1,2.1,0,0,0-6.7-6.04,2.4,2.4,0,0,0-7.32-4.3,2.4,2.4,0,0,0-6.7-2.568,2.1,2.1,0,0,0-5.112-1.92ZM4.216-7.472a2.776,2.776,0,0,1,1.208-.944,4.484,4.484,0,0,1,1.752-.32v2.3q-.416-.032-.56-.032a2.288,2.288,0,0,0-1.68.6,2.425,2.425,0,0,0-.608,1.8V0h-2.5V-8.608H4.216ZM12.68.128A5.162,5.162,0,0,1,10.24-.44,4.222,4.222,0,0,1,8.552-2.016,4.342,4.342,0,0,1,7.944-4.3a4.342,4.342,0,0,1,.608-2.288A4.222,4.222,0,0,1,10.24-8.168a5.162,5.162,0,0,1,2.44-.568,5.114,5.114,0,0,1,2.432.568,4.236,4.236,0,0,1,1.68,1.576A4.342,4.342,0,0,1,17.4-4.3a4.342,4.342,0,0,1-.608,2.288A4.236,4.236,0,0,1,15.112-.44,5.114,5.114,0,0,1,12.68.128Zm0-2.048a2.079,2.079,0,0,0,1.576-.648A2.416,2.416,0,0,0,14.872-4.3a2.416,2.416,0,0,0-.616-1.736,2.079,2.079,0,0,0-1.576-.648A2.1,2.1,0,0,0,11.1-6.04,2.4,2.4,0,0,0,10.472-4.3,2.4,2.4,0,0,0,11.1-2.568,2.1,2.1,0,0,0,12.68-1.92Zm6.384-6.688h2.5V0h-2.5Zm1.248-1.2a1.583,1.583,0,0,1-1.12-.4,1.3,1.3,0,0,1-.432-.992,1.3,1.3,0,0,1,.432-.992,1.583,1.583,0,0,1,1.12-.4,1.623,1.623,0,0,1,1.12.384,1.231,1.231,0,0,1,.432.96,1.359,1.359,0,0,1-.432,1.032A1.565,1.565,0,0,1,20.312-9.808Zm12.336-2.064V0H30.264V-.992A3.292,3.292,0,0,1,27.576.128a4.47,4.47,0,0,1-2.2-.544,3.9,3.9,0,0,1-1.544-1.552,4.731,4.731,0,0,1-.56-2.336,4.731,4.731,0,0,1,.56-2.336,3.9,3.9,0,0,1,1.544-1.552,4.47,4.47,0,0,1,2.2-.544A3.274,3.274,0,0,1,30.152-7.7v-4.176ZM28.008-1.92a2.086,2.086,0,0,0,1.568-.648A2.4,2.4,0,0,0,30.2-4.3a2.4,2.4,0,0,0-.624-1.736,2.086,2.086,0,0,0-1.568-.648,2.1,2.1,0,0,0-1.584.648A2.4,2.4,0,0,0,25.8-4.3a2.4,2.4,0,0,0,.624,1.736A2.1,2.1,0,0,0,28.008-1.92Zm-93.6,9.72a5.059,5.059,0,0,1,3.36,1.024,3.485,3.485,0,0,1,1.216,2.816,3.461,3.461,0,0,1-1.216,2.808,5.086,5.086,0,0,1-3.36,1.016H-68.6V19h-1.184V7.8Zm-.032,6.624A3.9,3.9,0,0,0-63.08,13.7a2.519,2.519,0,0,0,.88-2.056,2.556,2.556,0,0,0-.88-2.088,3.9,3.9,0,0,0-2.544-.728H-68.6v5.6Zm7.088-7.3H-57.4V19h-1.136Zm7.248,3.392a3.563,3.563,0,0,1,2.528.824,3.184,3.184,0,0,1,.88,2.44V19h-1.088V17.688A2.6,2.6,0,0,1-50.1,18.712a3.948,3.948,0,0,1-1.768.368,3.462,3.462,0,0,1-2.24-.672,2.17,2.17,0,0,1-.832-1.776A2.152,2.152,0,0,1-54.16,14.9a3.8,3.8,0,0,1,2.472-.656h2.672v-.512a2.157,2.157,0,0,0-.608-1.656,2.511,2.511,0,0,0-1.776-.568,4.515,4.515,0,0,0-1.536.264A3.871,3.871,0,0,0-54.2,12.5l-.512-.848a4.54,4.54,0,0,1,1.536-.84A5.98,5.98,0,0,1-51.288,10.52Zm-.4,7.664a2.994,2.994,0,0,0,1.648-.44,2.627,2.627,0,0,0,1.024-1.272V15.1h-2.64q-2.16,0-2.16,1.5a1.376,1.376,0,0,0,.56,1.16A2.549,2.549,0,0,0-51.688,18.184Zm11.328.3a2.151,2.151,0,0,1-.792.44,3.19,3.19,0,0,1-.984.152,2.468,2.468,0,0,1-1.824-.64,2.445,2.445,0,0,1-.64-1.808V11.544h-1.5v-.96h1.5V8.744h1.136v1.84h2.56v.96h-2.56v5.024a1.59,1.59,0,0,0,.376,1.144,1.427,1.427,0,0,0,1.08.392,2.09,2.09,0,0,0,.68-.112,1.691,1.691,0,0,0,.568-.32Zm4.848-10.48a1.454,1.454,0,0,0-1.112.4A1.67,1.67,0,0,0-37,9.592v.992h2.592v.96h-2.56V19H-38.1V11.544h-1.5v-.96h1.5V9.544A2.482,2.482,0,0,1-37.44,7.72a2.525,2.525,0,0,1,1.88-.672,3.177,3.177,0,0,1,.928.136,2.1,2.1,0,0,1,.752.392l-.384.848A1.876,1.876,0,0,0-35.512,8.008Zm5.936,11.072a4.374,4.374,0,0,1-2.192-.552A4.026,4.026,0,0,1-33.3,17a4.356,4.356,0,0,1-.56-2.208,4.356,4.356,0,0,1,.56-2.208,3.968,3.968,0,0,1,1.536-1.52,4.425,4.425,0,0,1,2.192-.544,4.425,4.425,0,0,1,2.192.544,3.913,3.913,0,0,1,1.528,1.52,4.406,4.406,0,0,1,.552,2.208A4.406,4.406,0,0,1-25.856,17a3.969,3.969,0,0,1-1.528,1.528A4.374,4.374,0,0,1-29.576,19.08Zm0-1.008a3.176,3.176,0,0,0,1.608-.408,2.844,2.844,0,0,0,1.112-1.16,3.589,3.589,0,0,0,.4-1.712,3.589,3.589,0,0,0-.4-1.712,2.844,2.844,0,0,0-1.112-1.16,3.176,3.176,0,0,0-1.608-.408,3.176,3.176,0,0,0-1.608.408,2.9,2.9,0,0,0-1.12,1.16,3.532,3.532,0,0,0-.408,1.712A3.532,3.532,0,0,0-32.3,16.5a2.9,2.9,0,0,0,1.12,1.16A3.176,3.176,0,0,0-29.576,18.072Zm7.68-5.84a2.753,2.753,0,0,1,1.192-1.28,4.05,4.05,0,0,1,1.96-.432v1.1l-.272-.016a2.688,2.688,0,0,0-2.08.816,3.251,3.251,0,0,0-.752,2.288V19h-1.136V10.584H-21.9ZM-6.2,10.52a3.345,3.345,0,0,1,2.488.912,3.664,3.664,0,0,1,.9,2.688V19H-3.944V14.232a2.857,2.857,0,0,0-.632-2,2.3,2.3,0,0,0-1.784-.688,2.682,2.682,0,0,0-2.064.808,3.149,3.149,0,0,0-.752,2.232V19h-1.136V14.232a2.857,2.857,0,0,0-.632-2,2.322,2.322,0,0,0-1.8-.688,2.687,2.687,0,0,0-2.056.808,3.128,3.128,0,0,0-.76,2.232V19H-16.7V10.584h1.088V12.12a3.036,3.036,0,0,1,1.248-1.184,3.931,3.931,0,0,1,1.84-.416,3.6,3.6,0,0,1,1.832.448A2.754,2.754,0,0,1-9.528,12.3a3.279,3.279,0,0,1,1.336-1.3A4.118,4.118,0,0,1-6.2,10.52ZM16.344,7.8V19H15.208V10.04l-4.4,7.536h-.56l-4.4-7.488V19H4.712V7.8h.976l4.864,8.3,4.816-8.3Zm6.848,11.28A4.374,4.374,0,0,1,21,18.528,4.026,4.026,0,0,1,19.464,17a4.633,4.633,0,0,1,0-4.416A3.968,3.968,0,0,1,21,11.064a4.688,4.688,0,0,1,4.384,0,3.913,3.913,0,0,1,1.528,1.52,4.692,4.692,0,0,1,0,4.416,3.969,3.969,0,0,1-1.528,1.528A4.374,4.374,0,0,1,23.192,19.08Zm0-1.008a3.176,3.176,0,0,0,1.608-.408,2.844,2.844,0,0,0,1.112-1.16,3.864,3.864,0,0,0,0-3.424A2.844,2.844,0,0,0,24.8,11.92a3.373,3.373,0,0,0-3.216,0,2.9,2.9,0,0,0-1.12,1.16,3.8,3.8,0,0,0,0,3.424,2.9,2.9,0,0,0,1.12,1.16A3.176,3.176,0,0,0,23.192,18.072ZM37.464,7.128V19H36.376V17.336a3.465,3.465,0,0,1-1.352,1.3,3.965,3.965,0,0,1-1.9.448,4.272,4.272,0,0,1-2.144-.544,3.888,3.888,0,0,1-1.5-1.52,4.49,4.49,0,0,1-.544-2.224,4.49,4.49,0,0,1,.544-2.224,3.833,3.833,0,0,1,1.5-1.512,4.322,4.322,0,0,1,2.144-.536,3.979,3.979,0,0,1,1.848.424,3.5,3.5,0,0,1,1.352,1.24V7.128Zm-4.24,10.944a3.144,3.144,0,0,0,1.592-.408,2.9,2.9,0,0,0,1.12-1.16,3.8,3.8,0,0,0,0-3.424,2.9,2.9,0,0,0-1.12-1.16,3.341,3.341,0,0,0-3.2,0,2.9,2.9,0,0,0-1.12,1.16,3.8,3.8,0,0,0,0,3.424,2.9,2.9,0,0,0,1.12,1.16A3.176,3.176,0,0,0,33.224,18.072Zm14.992-7.488V19H47.128V17.464A3.116,3.116,0,0,1,45.9,18.656a3.707,3.707,0,0,1-1.792.424,3.584,3.584,0,0,1-2.6-.92,3.581,3.581,0,0,1-.952-2.7v-4.88h1.136v4.768a2.814,2.814,0,0,0,.656,2.016,2.464,2.464,0,0,0,1.872.688,2.754,2.754,0,0,0,2.1-.808A3.132,3.132,0,0,0,47.08,15V10.584ZM51.4,7.128h1.136V19H51.4Zm11.632,8.016h-7.04A3.008,3.008,0,0,0,57,17.264a3.346,3.346,0,0,0,2.3.808,3.631,3.631,0,0,0,1.44-.28,3.146,3.146,0,0,0,1.136-.824l.64.736a3.6,3.6,0,0,1-1.4,1.024,4.735,4.735,0,0,1-1.848.352,4.672,4.672,0,0,1-2.3-.552A3.98,3.98,0,0,1,55.416,17a4.356,4.356,0,0,1-.56-2.208,4.51,4.51,0,0,1,.536-2.208,3.881,3.881,0,0,1,1.472-1.52,4.11,4.11,0,0,1,2.1-.544,4.067,4.067,0,0,1,2.1.544,3.856,3.856,0,0,1,1.456,1.512,4.553,4.553,0,0,1,.528,2.216ZM58.968,11.5a2.862,2.862,0,0,0-2.04.776,3.048,3.048,0,0,0-.936,2.024H61.96a3.048,3.048,0,0,0-.936-2.024A2.882,2.882,0,0,0,58.968,11.5Zm8.656,7.584a6.462,6.462,0,0,1-1.96-.3A4.216,4.216,0,0,1,64.2,18.04l.512-.9a4.311,4.311,0,0,0,1.328.68,5.275,5.275,0,0,0,1.664.264,3.178,3.178,0,0,0,1.7-.36,1.146,1.146,0,0,0,.552-1.016.914.914,0,0,0-.3-.728,2.019,2.019,0,0,0-.768-.4,10.955,10.955,0,0,0-1.232-.264,14.124,14.124,0,0,1-1.648-.392,2.422,2.422,0,0,1-1.064-.68,1.892,1.892,0,0,1-.44-1.328,2.081,2.081,0,0,1,.88-1.728,3.952,3.952,0,0,1,2.448-.672,6.354,6.354,0,0,1,1.632.216,4.49,4.49,0,0,1,1.344.568l-.5.912a4.248,4.248,0,0,0-2.48-.72,2.876,2.876,0,0,0-1.64.384,1.176,1.176,0,0,0-.552,1.008,1,1,0,0,0,.312.768,1.919,1.919,0,0,0,.776.424,12.522,12.522,0,0,0,1.28.28,14.724,14.724,0,0,1,1.616.384,2.374,2.374,0,0,1,1.04.656,1.805,1.805,0,0,1,.432,1.28,2.036,2.036,0,0,1-.92,1.752A4.374,4.374,0,0,1,67.624,19.08Z" transform="translate(115.5 45.5)"/></g><path d="M-13.112-8.608h2.5V0h-2.5Zm1.248-1.2a1.583,1.583,0,0,1-1.12-.4,1.3,1.3,0,0,1-.432-.992,1.3,1.3,0,0,1,.432-.992,1.583,1.583,0,0,1,1.12-.4,1.623,1.623,0,0,1,1.12.384,1.231,1.231,0,0,1,.432.96,1.359,1.359,0,0,1-.432,1.032A1.565,1.565,0,0,1-11.864-9.808ZM-2.7.192A6.537,6.537,0,0,1-5.84-.56,5.581,5.581,0,0,1-8.032-2.632,5.657,5.657,0,0,1-8.824-5.6a5.657,5.657,0,0,1,.792-2.968A5.581,5.581,0,0,1-5.84-10.64,6.537,6.537,0,0,1-2.7-11.392,6.491,6.491,0,0,1,.44-10.64,5.654,5.654,0,0,1,2.632-8.568a5.613,5.613,0,0,1,.8,2.968,5.613,5.613,0,0,1-.8,2.968A5.654,5.654,0,0,1,.44-.56,6.491,6.491,0,0,1-2.7.192Zm0-2.208A3.554,3.554,0,0,0-.9-2.472,3.272,3.272,0,0,0,.352-3.744,3.739,3.739,0,0,0,.808-5.6,3.739,3.739,0,0,0,.352-7.456,3.272,3.272,0,0,0-.9-8.728,3.554,3.554,0,0,0-2.7-9.184a3.554,3.554,0,0,0-1.792.456A3.272,3.272,0,0,0-5.744-7.456,3.739,3.739,0,0,0-6.2-5.6a3.739,3.739,0,0,0,.456,1.856A3.272,3.272,0,0,0-4.488-2.472,3.554,3.554,0,0,0-2.7-2.016ZM9.064.192A9.164,9.164,0,0,1,6.5-.168,6.023,6.023,0,0,1,4.5-1.1l.88-1.952A5.972,5.972,0,0,0,7.1-2.208a6.43,6.43,0,0,0,1.984.32,3.17,3.17,0,0,0,1.632-.328.991.991,0,0,0,.528-.872.834.834,0,0,0-.312-.664,2.365,2.365,0,0,0-.8-.424q-.488-.16-1.32-.352a18.247,18.247,0,0,1-2.1-.608,3.405,3.405,0,0,1-1.4-.976A2.636,2.636,0,0,1,4.728-7.9a3.117,3.117,0,0,1,.528-1.768,3.552,3.552,0,0,1,1.592-1.256,6.5,6.5,0,0,1,2.6-.464,8.609,8.609,0,0,1,2.1.256,6.192,6.192,0,0,1,1.792.736l-.8,1.968a6.245,6.245,0,0,0-3.1-.88,2.91,2.91,0,0,0-1.608.352,1.074,1.074,0,0,0-.52.928.907.907,0,0,0,.6.856,9.42,9.42,0,0,0,1.832.552,18.247,18.247,0,0,1,2.1.608,3.471,3.471,0,0,1,1.4.96,2.574,2.574,0,0,1,.584,1.776,3.058,3.058,0,0,1-.536,1.752A3.6,3.6,0,0,1,11.672-.272,6.555,6.555,0,0,1,9.064.192ZM-65.592,7.8a5.059,5.059,0,0,1,3.36,1.024,3.485,3.485,0,0,1,1.216,2.816,3.461,3.461,0,0,1-1.216,2.808,5.086,5.086,0,0,1-3.36,1.016H-68.6V19h-1.184V7.8Zm-.032,6.624A3.9,3.9,0,0,0-63.08,13.7a2.519,2.519,0,0,0,.88-2.056,2.556,2.556,0,0,0-.88-2.088,3.9,3.9,0,0,0-2.544-.728H-68.6v5.6Zm7.088-7.3H-57.4V19h-1.136Zm7.248,3.392a3.563,3.563,0,0,1,2.528.824,3.184,3.184,0,0,1,.88,2.44V19h-1.088V17.688A2.6,2.6,0,0,1-50.1,18.712a3.948,3.948,0,0,1-1.768.368,3.462,3.462,0,0,1-2.24-.672,2.17,2.17,0,0,1-.832-1.776A2.152,2.152,0,0,1-54.16,14.9a3.8,3.8,0,0,1,2.472-.656h2.672v-.512a2.157,2.157,0,0,0-.608-1.656,2.511,2.511,0,0,0-1.776-.568,4.515,4.515,0,0,0-1.536.264A3.871,3.871,0,0,0-54.2,12.5l-.512-.848a4.54,4.54,0,0,1,1.536-.84A5.98,5.98,0,0,1-51.288,10.52Zm-.4,7.664a2.994,2.994,0,0,0,1.648-.44,2.627,2.627,0,0,0,1.024-1.272V15.1h-2.64q-2.16,0-2.16,1.5a1.376,1.376,0,0,0,.56,1.16A2.549,2.549,0,0,0-51.688,18.184Zm11.328.3a2.151,2.151,0,0,1-.792.44,3.19,3.19,0,0,1-.984.152,2.468,2.468,0,0,1-1.824-.64,2.445,2.445,0,0,1-.64-1.808V11.544h-1.5v-.96h1.5V8.744h1.136v1.84h2.56v.96h-2.56v5.024a1.59,1.59,0,0,0,.376,1.144,1.427,1.427,0,0,0,1.08.392,2.09,2.09,0,0,0,.68-.112,1.691,1.691,0,0,0,.568-.32Zm4.848-10.48a1.454,1.454,0,0,0-1.112.4A1.67,1.67,0,0,0-37,9.592v.992h2.592v.96h-2.56V19H-38.1V11.544h-1.5v-.96h1.5V9.544A2.482,2.482,0,0,1-37.44,7.72a2.525,2.525,0,0,1,1.88-.672,3.177,3.177,0,0,1,.928.136,2.1,2.1,0,0,1,.752.392l-.384.848A1.876,1.876,0,0,0-35.512,8.008Zm5.936,11.072a4.374,4.374,0,0,1-2.192-.552A4.026,4.026,0,0,1-33.3,17a4.356,4.356,0,0,1-.56-2.208,4.356,4.356,0,0,1,.56-2.208,3.968,3.968,0,0,1,1.536-1.52,4.425,4.425,0,0,1,2.192-.544,4.425,4.425,0,0,1,2.192.544,3.913,3.913,0,0,1,1.528,1.52,4.406,4.406,0,0,1,.552,2.208A4.406,4.406,0,0,1-25.856,17a3.969,3.969,0,0,1-1.528,1.528A4.374,4.374,0,0,1-29.576,19.08Zm0-1.008a3.176,3.176,0,0,0,1.608-.408,2.844,2.844,0,0,0,1.112-1.16,3.589,3.589,0,0,0,.4-1.712,3.589,3.589,0,0,0-.4-1.712,2.844,2.844,0,0,0-1.112-1.16,3.176,3.176,0,0,0-1.608-.408,3.176,3.176,0,0,0-1.608.408,2.9,2.9,0,0,0-1.12,1.16,3.532,3.532,0,0,0-.408,1.712A3.532,3.532,0,0,0-32.3,16.5a2.9,2.9,0,0,0,1.12,1.16A3.176,3.176,0,0,0-29.576,18.072Zm7.68-5.84a2.753,2.753,0,0,1,1.192-1.28,4.05,4.05,0,0,1,1.96-.432v1.1l-.272-.016a2.688,2.688,0,0,0-2.08.816,3.251,3.251,0,0,0-.752,2.288V19h-1.136V10.584H-21.9ZM-6.2,10.52a3.345,3.345,0,0,1,2.488.912,3.664,3.664,0,0,1,.9,2.688V19H-3.944V14.232a2.857,2.857,0,0,0-.632-2,2.3,2.3,0,0,0-1.784-.688,2.682,2.682,0,0,0-2.064.808,3.149,3.149,0,0,0-.752,2.232V19h-1.136V14.232a2.857,2.857,0,0,0-.632-2,2.322,2.322,0,0,0-1.8-.688,2.687,2.687,0,0,0-2.056.808,3.128,3.128,0,0,0-.76,2.232V19H-16.7V10.584h1.088V12.12a3.036,3.036,0,0,1,1.248-1.184,3.931,3.931,0,0,1,1.84-.416,3.6,3.6,0,0,1,1.832.448A2.754,2.754,0,0,1-9.528,12.3a3.279,3.279,0,0,1,1.336-1.3A4.118,4.118,0,0,1-6.2,10.52ZM16.344,7.8V19H15.208V10.04l-4.4,7.536h-.56l-4.4-7.488V19H4.712V7.8h.976l4.864,8.3,4.816-8.3Zm6.848,11.28A4.374,4.374,0,0,1,21,18.528,4.026,4.026,0,0,1,19.464,17a4.633,4.633,0,0,1,0-4.416A3.968,3.968,0,0,1,21,11.064a4.688,4.688,0,0,1,4.384,0,3.913,3.913,0,0,1,1.528,1.52,4.692,4.692,0,0,1,0,4.416,3.969,3.969,0,0,1-1.528,1.528A4.374,4.374,0,0,1,23.192,19.08Zm0-1.008a3.176,3.176,0,0,0,1.608-.408,2.844,2.844,0,0,0,1.112-1.16,3.864,3.864,0,0,0,0-3.424A2.844,2.844,0,0,0,24.8,11.92a3.373,3.373,0,0,0-3.216,0,2.9,2.9,0,0,0-1.12,1.16,3.8,3.8,0,0,0,0,3.424,2.9,2.9,0,0,0,1.12,1.16A3.176,3.176,0,0,0,23.192,18.072ZM37.464,7.128V19H36.376V17.336a3.465,3.465,0,0,1-1.352,1.3,3.965,3.965,0,0,1-1.9.448,4.272,4.272,0,0,1-2.144-.544,3.888,3.888,0,0,1-1.5-1.52,4.49,4.49,0,0,1-.544-2.224,4.49,4.49,0,0,1,.544-2.224,3.833,3.833,0,0,1,1.5-1.512,4.322,4.322,0,0,1,2.144-.536,3.979,3.979,0,0,1,1.848.424,3.5,3.5,0,0,1,1.352,1.24V7.128Zm-4.24,10.944a3.144,3.144,0,0,0,1.592-.408,2.9,2.9,0,0,0,1.12-1.16,3.8,3.8,0,0,0,0-3.424,2.9,2.9,0,0,0-1.12-1.16,3.341,3.341,0,0,0-3.2,0,2.9,2.9,0,0,0-1.12,1.16,3.8,3.8,0,0,0,0,3.424,2.9,2.9,0,0,0,1.12,1.16A3.176,3.176,0,0,0,33.224,18.072Zm14.992-7.488V19H47.128V17.464A3.116,3.116,0,0,1,45.9,18.656a3.707,3.707,0,0,1-1.792.424,3.584,3.584,0,0,1-2.6-.92,3.581,3.581,0,0,1-.952-2.7v-4.88h1.136v4.768a2.814,2.814,0,0,0,.656,2.016,2.464,2.464,0,0,0,1.872.688,2.754,2.754,0,0,0,2.1-.808A3.132,3.132,0,0,0,47.08,15V10.584ZM51.4,7.128h1.136V19H51.4Zm11.632,8.016h-7.04A3.008,3.008,0,0,0,57,17.264a3.346,3.346,0,0,0,2.3.808,3.631,3.631,0,0,0,1.44-.28,3.146,3.146,0,0,0,1.136-.824l.64.736a3.6,3.6,0,0,1-1.4,1.024,4.735,4.735,0,0,1-1.848.352,4.672,4.672,0,0,1-2.3-.552A3.98,3.98,0,0,1,55.416,17a4.356,4.356,0,0,1-.56-2.208,4.51,4.51,0,0,1,.536-2.208,3.881,3.881,0,0,1,1.472-1.52,4.11,4.11,0,0,1,2.1-.544,4.067,4.067,0,0,1,2.1.544,3.856,3.856,0,0,1,1.456,1.512,4.553,4.553,0,0,1,.528,2.216ZM58.968,11.5a2.862,2.862,0,0,0-2.04.776,3.048,3.048,0,0,0-.936,2.024H61.96a3.048,3.048,0,0,0-.936-2.024A2.882,2.882,0,0,0,58.968,11.5Zm8.656,7.584a6.462,6.462,0,0,1-1.96-.3A4.216,4.216,0,0,1,64.2,18.04l.512-.9a4.311,4.311,0,0,0,1.328.68,5.275,5.275,0,0,0,1.664.264,3.178,3.178,0,0,0,1.7-.36,1.146,1.146,0,0,0,.552-1.016.914.914,0,0,0-.3-.728,2.019,2.019,0,0,0-.768-.4,10.955,10.955,0,0,0-1.232-.264,14.124,14.124,0,0,1-1.648-.392,2.422,2.422,0,0,1-1.064-.68,1.892,1.892,0,0,1-.44-1.328,2.081,2.081,0,0,1,.88-1.728,3.952,3.952,0,0,1,2.448-.672,6.354,6.354,0,0,1,1.632.216,4.49,4.49,0,0,1,1.344.568l-.5.912a4.248,4.248,0,0,0-2.48-.72,2.876,2.876,0,0,0-1.64.384,1.176,1.176,0,0,0-.552,1.008,1,1,0,0,0,.312.768,1.919,1.919,0,0,0,.776.424,12.522,12.522,0,0,0,1.28.28,14.724,14.724,0,0,1,1.616.384,2.374,2.374,0,0,1,1.04.656,1.805,1.805,0,0,1,.432,1.28,2.036,2.036,0,0,1-.92,1.752A4.374,4.374,0,0,1,67.624,19.08Z" transform="translate(543 310)"/><path d="M-1.176-11.2-4.84,0H-7.624l-2.464-7.584L-12.632,0H-15.4l-3.68-11.2h2.688l2.528,7.872,2.64-7.872h2.4l2.56,7.936L-3.656-11.2ZM7.88-4.272q0,.048-.048.672H1.32a2.028,2.028,0,0,0,.832,1.264,2.756,2.756,0,0,0,1.632.464,3.3,3.3,0,0,0,1.192-.2A2.887,2.887,0,0,0,5.944-2.7l1.328,1.44A4.463,4.463,0,0,1,3.72.128,5.619,5.619,0,0,1,1.144-.44,4.164,4.164,0,0,1-.584-2.016,4.342,4.342,0,0,1-1.192-4.3a4.4,4.4,0,0,1,.6-2.28A4.2,4.2,0,0,1,1.056-8.168,4.839,4.839,0,0,1,3.4-8.736a4.8,4.8,0,0,1,2.288.544A3.971,3.971,0,0,1,7.3-6.632,4.652,4.652,0,0,1,7.88-4.272ZM3.416-6.848a2.15,2.15,0,0,0-1.424.48,2.043,2.043,0,0,0-.7,1.312h4.24a2.064,2.064,0,0,0-.7-1.3A2.1,2.1,0,0,0,3.416-6.848ZM14.632-8.736a4.387,4.387,0,0,1,2.184.552A3.964,3.964,0,0,1,18.36-6.632,4.686,4.686,0,0,1,18.92-4.3a4.686,4.686,0,0,1-.56,2.328A3.964,3.964,0,0,1,16.816-.424a4.387,4.387,0,0,1-2.184.552,3.311,3.311,0,0,1-2.7-1.12V0H9.544V-11.872h2.5V-7.7A3.324,3.324,0,0,1,14.632-8.736ZM14.2-1.92a2.079,2.079,0,0,0,1.576-.648A2.416,2.416,0,0,0,16.392-4.3a2.416,2.416,0,0,0-.616-1.736A2.079,2.079,0,0,0,14.2-6.688a2.079,2.079,0,0,0-1.576.648A2.416,2.416,0,0,0,12.008-4.3a2.416,2.416,0,0,0,.616,1.736A2.079,2.079,0,0,0,14.2-1.92ZM-65.592,7.8a5.059,5.059,0,0,1,3.36,1.024,3.485,3.485,0,0,1,1.216,2.816,3.461,3.461,0,0,1-1.216,2.808,5.086,5.086,0,0,1-3.36,1.016H-68.6V19h-1.184V7.8Zm-.032,6.624A3.9,3.9,0,0,0-63.08,13.7a2.519,2.519,0,0,0,.88-2.056,2.556,2.556,0,0,0-.88-2.088,3.9,3.9,0,0,0-2.544-.728H-68.6v5.6Zm7.088-7.3H-57.4V19h-1.136Zm7.248,3.392a3.563,3.563,0,0,1,2.528.824,3.184,3.184,0,0,1,.88,2.44V19h-1.088V17.688A2.6,2.6,0,0,1-50.1,18.712a3.948,3.948,0,0,1-1.768.368,3.462,3.462,0,0,1-2.24-.672,2.17,2.17,0,0,1-.832-1.776A2.152,2.152,0,0,1-54.16,14.9a3.8,3.8,0,0,1,2.472-.656h2.672v-.512a2.157,2.157,0,0,0-.608-1.656,2.511,2.511,0,0,0-1.776-.568,4.515,4.515,0,0,0-1.536.264A3.871,3.871,0,0,0-54.2,12.5l-.512-.848a4.54,4.54,0,0,1,1.536-.84A5.98,5.98,0,0,1-51.288,10.52Zm-.4,7.664a2.994,2.994,0,0,0,1.648-.44,2.627,2.627,0,0,0,1.024-1.272V15.1h-2.64q-2.16,0-2.16,1.5a1.376,1.376,0,0,0,.56,1.16A2.549,2.549,0,0,0-51.688,18.184Zm11.328.3a2.151,2.151,0,0,1-.792.44,3.19,3.19,0,0,1-.984.152,2.468,2.468,0,0,1-1.824-.64,2.445,2.445,0,0,1-.64-1.808V11.544h-1.5v-.96h1.5V8.744h1.136v1.84h2.56v.96h-2.56v5.024a1.59,1.59,0,0,0,.376,1.144,1.427,1.427,0,0,0,1.08.392,2.09,2.09,0,0,0,.68-.112,1.691,1.691,0,0,0,.568-.32Zm4.848-10.48a1.454,1.454,0,0,0-1.112.4A1.67,1.67,0,0,0-37,9.592v.992h2.592v.96h-2.56V19H-38.1V11.544h-1.5v-.96h1.5V9.544A2.482,2.482,0,0,1-37.44,7.72a2.525,2.525,0,0,1,1.88-.672,3.177,3.177,0,0,1,.928.136,2.1,2.1,0,0,1,.752.392l-.384.848A1.876,1.876,0,0,0-35.512,8.008Zm5.936,11.072a4.374,4.374,0,0,1-2.192-.552A4.026,4.026,0,0,1-33.3,17a4.356,4.356,0,0,1-.56-2.208,4.356,4.356,0,0,1,.56-2.208,3.968,3.968,0,0,1,1.536-1.52,4.425,4.425,0,0,1,2.192-.544,4.425,4.425,0,0,1,2.192.544,3.913,3.913,0,0,1,1.528,1.52,4.406,4.406,0,0,1,.552,2.208A4.406,4.406,0,0,1-25.856,17a3.969,3.969,0,0,1-1.528,1.528A4.374,4.374,0,0,1-29.576,19.08Zm0-1.008a3.176,3.176,0,0,0,1.608-.408,2.844,2.844,0,0,0,1.112-1.16,3.589,3.589,0,0,0,.4-1.712,3.589,3.589,0,0,0-.4-1.712,2.844,2.844,0,0,0-1.112-1.16,3.176,3.176,0,0,0-1.608-.408,3.176,3.176,0,0,0-1.608.408,2.9,2.9,0,0,0-1.12,1.16,3.532,3.532,0,0,0-.408,1.712A3.532,3.532,0,0,0-32.3,16.5a2.9,2.9,0,0,0,1.12,1.16A3.176,3.176,0,0,0-29.576,18.072Zm7.68-5.84a2.753,2.753,0,0,1,1.192-1.28,4.05,4.05,0,0,1,1.96-.432v1.1l-.272-.016a2.688,2.688,0,0,0-2.08.816,3.251,3.251,0,0,0-.752,2.288V19h-1.136V10.584H-21.9ZM-6.2,10.52a3.345,3.345,0,0,1,2.488.912,3.664,3.664,0,0,1,.9,2.688V19H-3.944V14.232a2.857,2.857,0,0,0-.632-2,2.3,2.3,0,0,0-1.784-.688,2.682,2.682,0,0,0-2.064.808,3.149,3.149,0,0,0-.752,2.232V19h-1.136V14.232a2.857,2.857,0,0,0-.632-2,2.322,2.322,0,0,0-1.8-.688,2.687,2.687,0,0,0-2.056.808,3.128,3.128,0,0,0-.76,2.232V19H-16.7V10.584h1.088V12.12a3.036,3.036,0,0,1,1.248-1.184,3.931,3.931,0,0,1,1.84-.416,3.6,3.6,0,0,1,1.832.448A2.754,2.754,0,0,1-9.528,12.3a3.279,3.279,0,0,1,1.336-1.3A4.118,4.118,0,0,1-6.2,10.52ZM16.344,7.8V19H15.208V10.04l-4.4,7.536h-.56l-4.4-7.488V19H4.712V7.8h.976l4.864,8.3,4.816-8.3Zm6.848,11.28A4.374,4.374,0,0,1,21,18.528,4.026,4.026,0,0,1,19.464,17a4.633,4.633,0,0,1,0-4.416A3.968,3.968,0,0,1,21,11.064a4.688,4.688,0,0,1,4.384,0,3.913,3.913,0,0,1,1.528,1.52,4.692,4.692,0,0,1,0,4.416,3.969,3.969,0,0,1-1.528,1.528A4.374,4.374,0,0,1,23.192,19.08Zm0-1.008a3.176,3.176,0,0,0,1.608-.408,2.844,2.844,0,0,0,1.112-1.16,3.864,3.864,0,0,0,0-3.424A2.844,2.844,0,0,0,24.8,11.92a3.373,3.373,0,0,0-3.216,0,2.9,2.9,0,0,0-1.12,1.16,3.8,3.8,0,0,0,0,3.424,2.9,2.9,0,0,0,1.12,1.16A3.176,3.176,0,0,0,23.192,18.072ZM37.464,7.128V19H36.376V17.336a3.465,3.465,0,0,1-1.352,1.3,3.965,3.965,0,0,1-1.9.448,4.272,4.272,0,0,1-2.144-.544,3.888,3.888,0,0,1-1.5-1.52,4.49,4.49,0,0,1-.544-2.224,4.49,4.49,0,0,1,.544-2.224,3.833,3.833,0,0,1,1.5-1.512,4.322,4.322,0,0,1,2.144-.536,3.979,3.979,0,0,1,1.848.424,3.5,3.5,0,0,1,1.352,1.24V7.128Zm-4.24,10.944a3.144,3.144,0,0,0,1.592-.408,2.9,2.9,0,0,0,1.12-1.16,3.8,3.8,0,0,0,0-3.424,2.9,2.9,0,0,0-1.12-1.16,3.341,3.341,0,0,0-3.2,0,2.9,2.9,0,0,0-1.12,1.16,3.8,3.8,0,0,0,0,3.424,2.9,2.9,0,0,0,1.12,1.16A3.176,3.176,0,0,0,33.224,18.072Zm14.992-7.488V19H47.128V17.464A3.116,3.116,0,0,1,45.9,18.656a3.707,3.707,0,0,1-1.792.424,3.584,3.584,0,0,1-2.6-.92,3.581,3.581,0,0,1-.952-2.7v-4.88h1.136v4.768a2.814,2.814,0,0,0,.656,2.016,2.464,2.464,0,0,0,1.872.688,2.754,2.754,0,0,0,2.1-.808A3.132,3.132,0,0,0,47.08,15V10.584ZM51.4,7.128h1.136V19H51.4Zm11.632,8.016h-7.04A3.008,3.008,0,0,0,57,17.264a3.346,3.346,0,0,0,2.3.808,3.631,3.631,0,0,0,1.44-.28,3.146,3.146,0,0,0,1.136-.824l.64.736a3.6,3.6,0,0,1-1.4,1.024,4.735,4.735,0,0,1-1.848.352,4.672,4.672,0,0,1-2.3-.552A3.98,3.98,0,0,1,55.416,17a4.356,4.356,0,0,1-.56-2.208,4.51,4.51,0,0,1,.536-2.208,3.881,3.881,0,0,1,1.472-1.52,4.11,4.11,0,0,1,2.1-.544,4.067,4.067,0,0,1,2.1.544,3.856,3.856,0,0,1,1.456,1.512,4.553,4.553,0,0,1,.528,2.216ZM58.968,11.5a2.862,2.862,0,0,0-2.04.776,3.048,3.048,0,0,0-.936,2.024H61.96a3.048,3.048,0,0,0-.936-2.024A2.882,2.882,0,0,0,58.968,11.5Zm8.656,7.584a6.462,6.462,0,0,1-1.96-.3A4.216,4.216,0,0,1,64.2,18.04l.512-.9a4.311,4.311,0,0,0,1.328.68,5.275,5.275,0,0,0,1.664.264,3.178,3.178,0,0,0,1.7-.36,1.146,1.146,0,0,0,.552-1.016.914.914,0,0,0-.3-.728,2.019,2.019,0,0,0-.768-.4,10.955,10.955,0,0,0-1.232-.264,14.124,14.124,0,0,1-1.648-.392,2.422,2.422,0,0,1-1.064-.68,1.892,1.892,0,0,1-.44-1.328,2.081,2.081,0,0,1,.88-1.728,3.952,3.952,0,0,1,2.448-.672,6.354,6.354,0,0,1,1.632.216,4.49,4.49,0,0,1,1.344.568l-.5.912a4.248,4.248,0,0,0-2.48-.72,2.876,2.876,0,0,0-1.64.384,1.176,1.176,0,0,0-.552,1.008,1,1,0,0,0,.312.768,1.919,1.919,0,0,0,.776.424,12.522,12.522,0,0,0,1.28.28,14.724,14.724,0,0,1,1.616.384,2.374,2.374,0,0,1,1.04.656,1.805,1.805,0,0,1,.432,1.28,2.036,2.036,0,0,1-.92,1.752A4.374,4.374,0,0,1,67.624,19.08Z" transform="translate(772 310)"/><path d="M12.894.252A18.886,18.886,0,0,1,6.615-.8,11.538,11.538,0,0,1,1.974-3.57L3.192-5.964A11.662,11.662,0,0,0,7.434-3.381a15.5,15.5,0,0,0,5.46.987q3.948,0,5.922-1.449A4.463,4.463,0,0,0,20.79-7.6a3.761,3.761,0,0,0-1.071-2.814,7.23,7.23,0,0,0-2.625-1.617,42.453,42.453,0,0,0-4.326-1.239,45.45,45.45,0,0,1-5.292-1.617,8.689,8.689,0,0,1-3.381-2.373,6.31,6.31,0,0,1-1.407-4.326,7.333,7.333,0,0,1,1.176-4.053A8.055,8.055,0,0,1,7.476-28.56a14.785,14.785,0,0,1,6.048-1.092,17.8,17.8,0,0,1,4.935.693,14.182,14.182,0,0,1,4.179,1.911l-1.05,2.478A14.451,14.451,0,0,0,17.64-26.4a14.735,14.735,0,0,0-4.116-.609,9.5,9.5,0,0,0-5.817,1.491,4.626,4.626,0,0,0-1.953,3.843,3.832,3.832,0,0,0,1.071,2.835A7.016,7.016,0,0,0,9.513-17.2q1.617.567,4.347,1.239a43.734,43.734,0,0,1,5.229,1.575,8.582,8.582,0,0,1,3.381,2.352A6.224,6.224,0,0,1,23.856-7.77a7.239,7.239,0,0,1-1.2,4.053,8.046,8.046,0,0,1-3.675,2.9A15.351,15.351,0,0,1,12.894.252ZM30.618-29.4h11.97a17.492,17.492,0,0,1,8.232,1.869,13.637,13.637,0,0,1,5.544,5.208A14.693,14.693,0,0,1,58.338-14.7a14.693,14.693,0,0,1-1.974,7.623A13.637,13.637,0,0,1,50.82-1.869,17.492,17.492,0,0,1,42.588,0H30.618ZM42.42-2.688a14.256,14.256,0,0,0,6.762-1.533,11.136,11.136,0,0,0,4.494-4.242,12.055,12.055,0,0,0,1.6-6.237,12.055,12.055,0,0,0-1.6-6.237,11.136,11.136,0,0,0-4.494-4.242,14.256,14.256,0,0,0-6.762-1.533H33.726V-2.688Zm32-11.13-6.006,6.09V0H65.31V-29.4h3.108v17.766L85.68-29.4h3.57L76.524-16.086,90.132,0h-3.7Z" transform="translate(186.5 407.5) rotate(-90)" fill="#707070"/><path d="M19.488-2.048V0H3.648V-22.4h15.36v2.048H6.016v7.968H17.6v2.016H6.016v8.32ZM30.144-21.984a2.909,2.909,0,0,0-2.224.8,3.339,3.339,0,0,0-.752,2.368v1.984h5.184v1.92h-5.12V0H24.96V-14.912H21.952v-1.92H24.96v-2.08a4.963,4.963,0,0,1,1.328-3.648,5.05,5.05,0,0,1,3.76-1.344,6.354,6.354,0,0,1,1.856.272,4.194,4.194,0,0,1,1.5.784l-.768,1.7A3.751,3.751,0,0,0,30.144-21.984Zm10.848,0a2.909,2.909,0,0,0-2.224.8,3.339,3.339,0,0,0-.752,2.368v1.984H43.2v1.92H38.08V0H35.808V-14.912H32.8v-1.92h3.008v-2.08a4.963,4.963,0,0,1,1.328-3.648A5.05,5.05,0,0,1,40.9-23.9a6.354,6.354,0,0,1,1.856.272,4.194,4.194,0,0,1,1.5.784l-.768,1.7A3.751,3.751,0,0,0,40.992-21.984ZM60.64-7.712H46.56a6.016,6.016,0,0,0,2.016,4.24,6.692,6.692,0,0,0,4.608,1.616,7.261,7.261,0,0,0,2.88-.56,6.291,6.291,0,0,0,2.272-1.648l1.28,1.472a7.208,7.208,0,0,1-2.8,2.048,9.47,9.47,0,0,1-3.7.7,9.345,9.345,0,0,1-4.592-1.1A7.959,7.959,0,0,1,45.408-4a8.713,8.713,0,0,1-1.12-4.416,9.021,9.021,0,0,1,1.072-4.416,7.762,7.762,0,0,1,2.944-3.04,8.219,8.219,0,0,1,4.208-1.088A8.133,8.133,0,0,1,56.7-15.872a7.713,7.713,0,0,1,2.912,3.024,9.105,9.105,0,0,1,1.056,4.432Zm-8.128-7.3a5.723,5.723,0,0,0-4.08,1.552A6.1,6.1,0,0,0,46.56-9.408H58.5a6.1,6.1,0,0,0-1.872-4.048A5.765,5.765,0,0,0,52.512-15.008ZM72.288.16A9.071,9.071,0,0,1,67.824-.928a7.876,7.876,0,0,1-3.088-3.056,8.8,8.8,0,0,1-1.12-4.432,8.713,8.713,0,0,1,1.12-4.416,7.907,7.907,0,0,1,3.088-3.04,9.071,9.071,0,0,1,4.464-1.088,8.644,8.644,0,0,1,3.888.848,6.457,6.457,0,0,1,2.7,2.48l-1.7,1.152a5.306,5.306,0,0,0-2.112-1.872,6.268,6.268,0,0,0-2.784-.624,6.592,6.592,0,0,0-3.28.816,5.734,5.734,0,0,0-2.272,2.32,7.064,7.064,0,0,0-.816,3.424,7.039,7.039,0,0,0,.816,3.44,5.76,5.76,0,0,0,2.272,2.3,6.592,6.592,0,0,0,3.28.816,6.4,6.4,0,0,0,2.784-.608A5.186,5.186,0,0,0,77.184-4.32l1.7,1.152a6.435,6.435,0,0,1-2.72,2.48A8.671,8.671,0,0,1,72.288.16Zm20.1-1.184a4.3,4.3,0,0,1-1.584.88,6.38,6.38,0,0,1-1.968.3,4.935,4.935,0,0,1-3.648-1.28A4.89,4.89,0,0,1,83.9-4.736V-14.912H80.9v-1.92H83.9v-3.68h2.272v3.68H91.3v1.92h-5.12V-4.864a3.18,3.18,0,0,0,.752,2.288,2.854,2.854,0,0,0,2.16.784,4.18,4.18,0,0,0,1.36-.224,3.381,3.381,0,0,0,1.136-.64ZM105.376-22.4a10.117,10.117,0,0,1,6.72,2.048,6.969,6.969,0,0,1,2.432,5.632A6.922,6.922,0,0,1,112.1-9.1a10.172,10.172,0,0,1-6.72,2.032H99.36V0H96.992V-22.4Zm-.064,13.248a7.8,7.8,0,0,0,5.088-1.456,5.038,5.038,0,0,0,1.76-4.112A5.112,5.112,0,0,0,110.4-18.9a7.8,7.8,0,0,0-5.088-1.456H99.36v11.2Zm14.176-14.592h2.272V0h-2.272Zm14.5,6.784a7.126,7.126,0,0,1,5.056,1.648,6.368,6.368,0,0,1,1.76,4.88V0h-2.176V-2.624a5.21,5.21,0,0,1-2.256,2.048,7.9,7.9,0,0,1-3.536.736,6.924,6.924,0,0,1-4.48-1.344,4.34,4.34,0,0,1-1.664-3.552,4.3,4.3,0,0,1,1.552-3.456Q129.792-9.5,133.184-9.5h5.344v-1.024a4.313,4.313,0,0,0-1.216-3.312,5.021,5.021,0,0,0-3.552-1.136,9.03,9.03,0,0,0-3.072.528,7.741,7.741,0,0,0-2.528,1.456l-1.024-1.7a9.08,9.08,0,0,1,3.072-1.68A11.96,11.96,0,0,1,133.984-16.96Zm-.8,15.328a5.988,5.988,0,0,0,3.3-.88,5.255,5.255,0,0,0,2.048-2.544V-7.808h-5.28q-4.32,0-4.32,3.008a2.752,2.752,0,0,0,1.12,2.32A5.1,5.1,0,0,0,133.184-1.632Zm27.616-15.2L152.384,2.016a8.044,8.044,0,0,1-2.368,3.36,5.291,5.291,0,0,1-3.232.992,6.6,6.6,0,0,1-2.272-.384,4.923,4.923,0,0,1-1.824-1.152l1.056-1.7a4.19,4.19,0,0,0,3.072,1.28,3.092,3.092,0,0,0,1.968-.64A5.809,5.809,0,0,0,150.3,1.6l.736-1.632-7.52-16.8h2.368l6.336,14.3,6.336-14.3Zm17.376,9.12H164.1a6.016,6.016,0,0,0,2.016,4.24,6.692,6.692,0,0,0,4.608,1.616,7.261,7.261,0,0,0,2.88-.56,6.291,6.291,0,0,0,2.272-1.648l1.28,1.472a7.208,7.208,0,0,1-2.8,2.048,9.47,9.47,0,0,1-3.7.7,9.345,9.345,0,0,1-4.592-1.1A7.96,7.96,0,0,1,162.944-4a8.713,8.713,0,0,1-1.12-4.416,9.021,9.021,0,0,1,1.072-4.416,7.762,7.762,0,0,1,2.944-3.04,8.219,8.219,0,0,1,4.208-1.088,8.133,8.133,0,0,1,4.192,1.088,7.713,7.713,0,0,1,2.912,3.024,9.105,9.105,0,0,1,1.056,4.432Zm-8.128-7.3a5.723,5.723,0,0,0-4.08,1.552A6.1,6.1,0,0,0,164.1-9.408h11.936a6.1,6.1,0,0,0-1.872-4.048A5.765,5.765,0,0,0,170.048-15.008Zm14.976,1.472a5.506,5.506,0,0,1,2.384-2.56,8.1,8.1,0,0,1,3.92-.864v2.208l-.544-.032a5.376,5.376,0,0,0-4.16,1.632,6.5,6.5,0,0,0-1.5,4.576V0h-2.272V-16.832h2.176Z" transform="translate(447 424)"/><path d="M-70.839-12.6a5.691,5.691,0,0,1,3.78,1.152A3.92,3.92,0,0,1-65.691-8.28a3.894,3.894,0,0,1-1.368,3.159,5.722,5.722,0,0,1-3.78,1.143h-3.384V0h-1.332V-12.6Zm-.036,7.452a4.386,4.386,0,0,0,2.862-.819,2.834,2.834,0,0,0,.99-2.313,2.875,2.875,0,0,0-.99-2.349,4.386,4.386,0,0,0-2.862-.819h-3.348v6.3Zm7.974-8.208h1.278V0H-62.9Zm8.154,3.816a4.008,4.008,0,0,1,2.844.927,3.582,3.582,0,0,1,.99,2.745V0h-1.224V-1.476A2.93,2.93,0,0,1-53.406-.324,4.441,4.441,0,0,1-55.4.09a3.9,3.9,0,0,1-2.52-.756,2.441,2.441,0,0,1-.936-2,2.421,2.421,0,0,1,.873-1.944A4.272,4.272,0,0,1-55.2-5.346h3.006v-.576a2.426,2.426,0,0,0-.684-1.863,2.825,2.825,0,0,0-2-.639,5.079,5.079,0,0,0-1.728.3,4.354,4.354,0,0,0-1.422.819l-.576-.954a5.108,5.108,0,0,1,1.728-.945A6.727,6.727,0,0,1-54.747-9.54ZM-55.2-.918a3.368,3.368,0,0,0,1.854-.5,2.956,2.956,0,0,0,1.152-1.431V-4.392h-2.97q-2.43,0-2.43,1.692a1.548,1.548,0,0,0,.63,1.305A2.868,2.868,0,0,0-55.2-.918Zm12.744.342a2.42,2.42,0,0,1-.891.5A3.589,3.589,0,0,1-44.451.09,2.776,2.776,0,0,1-46.5-.63a2.751,2.751,0,0,1-.72-2.034V-8.388h-1.692v-1.08h1.692v-2.07h1.278v2.07h2.88v1.08h-2.88v5.652a1.789,1.789,0,0,0,.423,1.287,1.605,1.605,0,0,0,1.215.441,2.351,2.351,0,0,0,.765-.126,1.9,1.9,0,0,0,.639-.36ZM-37-12.366a1.636,1.636,0,0,0-1.251.45,1.878,1.878,0,0,0-.423,1.332v1.116h2.916v1.08h-2.88V0h-1.278V-8.388h-1.692v-1.08h1.692v-1.17a2.792,2.792,0,0,1,.747-2.052,2.841,2.841,0,0,1,2.115-.756,3.574,3.574,0,0,1,1.044.153,2.359,2.359,0,0,1,.846.441l-.432.954A2.11,2.11,0,0,0-37-12.366ZM-30.321.09a4.921,4.921,0,0,1-2.466-.621A4.529,4.529,0,0,1-34.515-2.25a4.9,4.9,0,0,1-.63-2.484,4.9,4.9,0,0,1,.63-2.484,4.465,4.465,0,0,1,1.728-1.71,4.978,4.978,0,0,1,2.466-.612,4.978,4.978,0,0,1,2.466.612,4.4,4.4,0,0,1,1.719,1.71,4.957,4.957,0,0,1,.621,2.484,4.957,4.957,0,0,1-.621,2.484A4.465,4.465,0,0,1-27.855-.531,4.921,4.921,0,0,1-30.321.09Zm0-1.134A3.573,3.573,0,0,0-28.512-1.5a3.2,3.2,0,0,0,1.251-1.305,4.038,4.038,0,0,0,.45-1.926,4.038,4.038,0,0,0-.45-1.926,3.2,3.2,0,0,0-1.251-1.305,3.573,3.573,0,0,0-1.809-.459,3.573,3.573,0,0,0-1.809.459A3.26,3.26,0,0,0-33.39-6.66a3.973,3.973,0,0,0-.459,1.926,3.973,3.973,0,0,0,.459,1.926A3.26,3.26,0,0,0-32.13-1.5,3.573,3.573,0,0,0-30.321-1.044Zm8.64-6.57a3.1,3.1,0,0,1,1.341-1.44,4.557,4.557,0,0,1,2.2-.486V-8.3l-.306-.018a3.024,3.024,0,0,0-2.34.918,3.657,3.657,0,0,0-.846,2.574V0h-1.278V-9.468h1.224ZM-4.023-9.54a3.763,3.763,0,0,1,2.8,1.026A4.122,4.122,0,0,1-.207-5.49V0H-1.485V-5.364A3.214,3.214,0,0,0-2.2-7.614,2.588,2.588,0,0,0-4.2-8.388a3.017,3.017,0,0,0-2.322.909,3.542,3.542,0,0,0-.846,2.511V0H-8.649V-5.364a3.214,3.214,0,0,0-.711-2.25,2.612,2.612,0,0,0-2.025-.774,3.023,3.023,0,0,0-2.313.909,3.519,3.519,0,0,0-.855,2.511V0h-1.278V-9.468h1.224V-7.74a3.415,3.415,0,0,1,1.4-1.332,4.423,4.423,0,0,1,2.07-.468,4.051,4.051,0,0,1,2.061.5,3.1,3.1,0,0,1,1.3,1.494,3.689,3.689,0,0,1,1.5-1.467A4.632,4.632,0,0,1-4.023-9.54ZM10.521.09a7.269,7.269,0,0,1-2.2-.333A4.743,4.743,0,0,1,6.669-1.08l.576-1.008a4.85,4.85,0,0,0,1.494.765,5.935,5.935,0,0,0,1.872.3,3.575,3.575,0,0,0,1.917-.4,1.289,1.289,0,0,0,.621-1.143,1.028,1.028,0,0,0-.342-.819,2.272,2.272,0,0,0-.864-.45,12.324,12.324,0,0,0-1.386-.3A15.89,15.89,0,0,1,8.7-4.581a2.724,2.724,0,0,1-1.2-.765A2.128,2.128,0,0,1,7.011-6.84,2.341,2.341,0,0,1,8-8.784a4.445,4.445,0,0,1,2.754-.756,7.149,7.149,0,0,1,1.836.243,5.052,5.052,0,0,1,1.512.639l-.558,1.026a4.779,4.779,0,0,0-2.79-.81A3.235,3.235,0,0,0,8.91-8.01a1.323,1.323,0,0,0-.621,1.134,1.119,1.119,0,0,0,.351.864,2.159,2.159,0,0,0,.873.477,14.087,14.087,0,0,0,1.44.315,16.565,16.565,0,0,1,1.818.432,2.671,2.671,0,0,1,1.17.738,2.031,2.031,0,0,1,.486,1.44A2.29,2.29,0,0,1,13.392-.639,4.92,4.92,0,0,1,10.521.09Zm14.8-9.558V0H24.093V-1.728A3.505,3.505,0,0,1,22.707-.387,4.17,4.17,0,0,1,20.691.09,4.032,4.032,0,0,1,17.766-.945a4.028,4.028,0,0,1-1.071-3.033v-5.49h1.278V-4.1a3.166,3.166,0,0,0,.738,2.268,2.772,2.772,0,0,0,2.106.774,3.1,3.1,0,0,0,2.358-.909A3.523,3.523,0,0,0,24.039-4.5V-9.468Zm8.46-.072a4.862,4.862,0,0,1,2.412.6,4.312,4.312,0,0,1,1.692,1.7,5.051,5.051,0,0,1,.612,2.5,5.088,5.088,0,0,1-.612,2.52A4.329,4.329,0,0,1,36.2-.513a4.848,4.848,0,0,1-2.421.6A4.477,4.477,0,0,1,31.7-.387a3.94,3.94,0,0,1-1.521-1.395V3.492H28.9V-9.468h1.224V-7.6a3.937,3.937,0,0,1,1.521-1.44A4.461,4.461,0,0,1,33.777-9.54Zm-.09,8.5a3.587,3.587,0,0,0,1.8-.459,3.242,3.242,0,0,0,1.269-1.305,3.973,3.973,0,0,0,.459-1.926,3.921,3.921,0,0,0-.459-1.917,3.319,3.319,0,0,0-1.269-1.3,3.533,3.533,0,0,0-1.8-.468,3.519,3.519,0,0,0-1.809.468,3.338,3.338,0,0,0-1.26,1.3,3.921,3.921,0,0,0-.459,1.917,3.973,3.973,0,0,0,.459,1.926A3.26,3.26,0,0,0,31.878-1.5,3.573,3.573,0,0,0,33.687-1.044Zm12.294-8.5a4.862,4.862,0,0,1,2.412.6,4.312,4.312,0,0,1,1.692,1.7,5.051,5.051,0,0,1,.612,2.5,5.088,5.088,0,0,1-.612,2.52A4.329,4.329,0,0,1,48.4-.513a4.848,4.848,0,0,1-2.421.6A4.477,4.477,0,0,1,43.9-.387a3.94,3.94,0,0,1-1.521-1.395V3.492H41.1V-9.468h1.224V-7.6a3.937,3.937,0,0,1,1.521-1.44A4.461,4.461,0,0,1,45.981-9.54Zm-.09,8.5a3.587,3.587,0,0,0,1.8-.459A3.242,3.242,0,0,0,48.96-2.808a3.973,3.973,0,0,0,.459-1.926,3.921,3.921,0,0,0-.459-1.917,3.319,3.319,0,0,0-1.269-1.3,3.533,3.533,0,0,0-1.8-.468,3.519,3.519,0,0,0-1.809.468,3.338,3.338,0,0,0-1.26,1.3,3.921,3.921,0,0,0-.459,1.917,3.973,3.973,0,0,0,.459,1.926A3.26,3.26,0,0,0,44.082-1.5,3.573,3.573,0,0,0,45.891-1.044ZM57.177.09a4.921,4.921,0,0,1-2.466-.621A4.529,4.529,0,0,1,52.983-2.25a4.9,4.9,0,0,1-.63-2.484,4.9,4.9,0,0,1,.63-2.484,4.465,4.465,0,0,1,1.728-1.71,4.978,4.978,0,0,1,2.466-.612,4.978,4.978,0,0,1,2.466.612,4.4,4.4,0,0,1,1.719,1.71,4.957,4.957,0,0,1,.621,2.484,4.957,4.957,0,0,1-.621,2.484A4.465,4.465,0,0,1,59.643-.531,4.921,4.921,0,0,1,57.177.09Zm0-1.134A3.573,3.573,0,0,0,58.986-1.5a3.2,3.2,0,0,0,1.251-1.305,4.038,4.038,0,0,0,.45-1.926,4.038,4.038,0,0,0-.45-1.926,3.2,3.2,0,0,0-1.251-1.305,3.573,3.573,0,0,0-1.809-.459,3.573,3.573,0,0,0-1.809.459,3.26,3.26,0,0,0-1.26,1.305,3.973,3.973,0,0,0-.459,1.926,3.973,3.973,0,0,0,.459,1.926A3.26,3.26,0,0,0,55.368-1.5,3.573,3.573,0,0,0,57.177-1.044Zm8.64-6.57a3.1,3.1,0,0,1,1.341-1.44,4.557,4.557,0,0,1,2.205-.486V-8.3l-.306-.018a3.024,3.024,0,0,0-2.34.918,3.657,3.657,0,0,0-.846,2.574V0H64.593V-9.468h1.224ZM77.067-.576a2.42,2.42,0,0,1-.891.5A3.589,3.589,0,0,1,75.069.09a2.776,2.776,0,0,1-2.052-.72,2.751,2.751,0,0,1-.72-2.034V-8.388H70.605v-1.08H72.3v-2.07h1.278v2.07h2.88v1.08h-2.88v5.652A1.789,1.789,0,0,0,74-1.449a1.605,1.605,0,0,0,1.215.441,2.351,2.351,0,0,0,.765-.126,1.9,1.9,0,0,0,.639-.36ZM-47.511,22.09a5.1,5.1,0,0,1-2.511-.612,4.43,4.43,0,0,1-1.737-1.719,4.95,4.95,0,0,1-.63-2.493,4.9,4.9,0,0,1,.63-2.484,4.447,4.447,0,0,1,1.737-1.71,5.1,5.1,0,0,1,2.511-.612,4.862,4.862,0,0,1,2.187.477A3.632,3.632,0,0,1-43.8,14.332l-.954.648a2.985,2.985,0,0,0-1.188-1.053,3.525,3.525,0,0,0-1.566-.351,3.708,3.708,0,0,0-1.845.459,3.225,3.225,0,0,0-1.278,1.305,3.973,3.973,0,0,0-.459,1.926,3.96,3.96,0,0,0,.459,1.935,3.24,3.24,0,0,0,1.278,1.3,3.708,3.708,0,0,0,1.845.459,3.6,3.6,0,0,0,1.566-.342,2.917,2.917,0,0,0,1.188-1.044l.954.648a3.62,3.62,0,0,1-1.53,1.4A4.878,4.878,0,0,1-47.511,22.09Zm9.918,0a4.921,4.921,0,0,1-2.466-.621,4.529,4.529,0,0,1-1.728-1.719,4.9,4.9,0,0,1-.63-2.484,4.9,4.9,0,0,1,.63-2.484,4.465,4.465,0,0,1,1.728-1.71,4.978,4.978,0,0,1,2.466-.612,4.978,4.978,0,0,1,2.466.612,4.4,4.4,0,0,1,1.719,1.71,4.957,4.957,0,0,1,.621,2.484,4.957,4.957,0,0,1-.621,2.484,4.465,4.465,0,0,1-1.719,1.719A4.921,4.921,0,0,1-37.593,22.09Zm0-1.134a3.573,3.573,0,0,0,1.809-.459,3.2,3.2,0,0,0,1.251-1.305,4.038,4.038,0,0,0,.45-1.926,4.038,4.038,0,0,0-.45-1.926,3.2,3.2,0,0,0-1.251-1.305,3.573,3.573,0,0,0-1.809-.459,3.573,3.573,0,0,0-1.809.459,3.26,3.26,0,0,0-1.26,1.305,3.973,3.973,0,0,0-.459,1.926,3.973,3.973,0,0,0,.459,1.926A3.26,3.26,0,0,0-39.4,20.5,3.573,3.573,0,0,0-37.593,20.956Zm19.224-8.5a3.763,3.763,0,0,1,2.8,1.026,4.122,4.122,0,0,1,1.017,3.024V22h-1.278V16.636a3.214,3.214,0,0,0-.711-2.25,2.588,2.588,0,0,0-2.007-.774,3.017,3.017,0,0,0-2.322.909,3.542,3.542,0,0,0-.846,2.511V22h-1.278V16.636a3.214,3.214,0,0,0-.711-2.25,2.612,2.612,0,0,0-2.025-.774,3.023,3.023,0,0,0-2.313.909,3.519,3.519,0,0,0-.855,2.511V22h-1.278V12.532h1.224V14.26a3.415,3.415,0,0,1,1.4-1.332,4.423,4.423,0,0,1,2.07-.468,4.051,4.051,0,0,1,2.061.5,3.1,3.1,0,0,1,1.305,1.494,3.689,3.689,0,0,1,1.5-1.467A4.632,4.632,0,0,1-18.369,12.46Zm12.168,0a4.862,4.862,0,0,1,2.412.6,4.312,4.312,0,0,1,1.692,1.7,5.051,5.051,0,0,1,.612,2.5,5.088,5.088,0,0,1-.612,2.52,4.329,4.329,0,0,1-1.683,1.7,4.848,4.848,0,0,1-2.421.6,4.477,4.477,0,0,1-2.079-.477,3.94,3.94,0,0,1-1.521-1.4v5.274h-1.278V12.532h1.224V14.4a3.937,3.937,0,0,1,1.521-1.44A4.461,4.461,0,0,1-6.2,12.46Zm-.09,8.5a3.587,3.587,0,0,0,1.8-.459,3.242,3.242,0,0,0,1.269-1.305,3.973,3.973,0,0,0,.459-1.926,3.921,3.921,0,0,0-.459-1.917,3.319,3.319,0,0,0-1.269-1.3,3.533,3.533,0,0,0-1.8-.468,3.519,3.519,0,0,0-1.809.468,3.338,3.338,0,0,0-1.26,1.3,3.921,3.921,0,0,0-.459,1.917,3.973,3.973,0,0,0,.459,1.926A3.26,3.26,0,0,0-8.1,20.5,3.573,3.573,0,0,0-6.291,20.956ZM5,22.09a4.921,4.921,0,0,1-2.466-.621A4.529,4.529,0,0,1,.8,19.75a5.212,5.212,0,0,1,0-4.968,4.465,4.465,0,0,1,1.728-1.71A4.978,4.978,0,0,1,5,12.46a4.978,4.978,0,0,1,2.466.612,4.4,4.4,0,0,1,1.719,1.71,5.279,5.279,0,0,1,0,4.968,4.465,4.465,0,0,1-1.719,1.719A4.921,4.921,0,0,1,5,22.09Zm0-1.134A3.573,3.573,0,0,0,6.8,20.5a3.2,3.2,0,0,0,1.251-1.305,4.347,4.347,0,0,0,0-3.852A3.2,3.2,0,0,0,6.8,14.035,3.573,3.573,0,0,0,5,13.576a3.573,3.573,0,0,0-1.809.459,3.26,3.26,0,0,0-1.26,1.305,4.27,4.27,0,0,0,0,3.852A3.26,3.26,0,0,0,3.186,20.5,3.573,3.573,0,0,0,5,20.956Zm12.24-8.5a3.869,3.869,0,0,1,2.835,1.035,4.043,4.043,0,0,1,1.053,3.015V22H19.845V16.636a3.138,3.138,0,0,0-.738-2.25A2.772,2.772,0,0,0,17,13.612a3.235,3.235,0,0,0-2.421.909,3.433,3.433,0,0,0-.891,2.511V22H12.411V12.532h1.224v1.746a3.555,3.555,0,0,1,1.449-1.341A4.638,4.638,0,0,1,17.235,12.46Zm15.642,5.2h-7.92a3.384,3.384,0,0,0,1.134,2.385,3.764,3.764,0,0,0,2.592.909,4.084,4.084,0,0,0,1.62-.315,3.539,3.539,0,0,0,1.278-.927l.72.828a4.054,4.054,0,0,1-1.575,1.152,5.327,5.327,0,0,1-2.079.4,5.256,5.256,0,0,1-2.583-.621,4.477,4.477,0,0,1-1.755-1.719,4.9,4.9,0,0,1-.63-2.484,5.074,5.074,0,0,1,.6-2.484,4.366,4.366,0,0,1,1.656-1.71,4.623,4.623,0,0,1,2.367-.612,4.575,4.575,0,0,1,2.358.612,4.338,4.338,0,0,1,1.638,1.7,5.122,5.122,0,0,1,.594,2.493Zm-4.572-4.1a3.219,3.219,0,0,0-2.3.873,3.429,3.429,0,0,0-1.053,2.277h6.714a3.429,3.429,0,0,0-1.053-2.277A3.243,3.243,0,0,0,28.305,13.558Zm12.024-1.1a3.869,3.869,0,0,1,2.835,1.035,4.043,4.043,0,0,1,1.053,3.015V22H42.939V16.636a3.138,3.138,0,0,0-.738-2.25,2.772,2.772,0,0,0-2.106-.774,3.235,3.235,0,0,0-2.421.909,3.433,3.433,0,0,0-.891,2.511V22H35.505V12.532h1.224v1.746a3.555,3.555,0,0,1,1.449-1.341A4.638,4.638,0,0,1,40.329,12.46Zm12.348,8.964a2.42,2.42,0,0,1-.891.5,3.589,3.589,0,0,1-1.107.171,2.508,2.508,0,0,1-2.772-2.754V13.612H46.215v-1.08h1.692v-2.07h1.278v2.07h2.88v1.08h-2.88v5.652a1.789,1.789,0,0,0,.423,1.287,1.605,1.605,0,0,0,1.215.441,2.351,2.351,0,0,0,.765-.126,1.9,1.9,0,0,0,.639-.36Z" transform="translate(985 310)" fill="#707070"/><path d="M-58.5-12.6h1.332V-1.152h7.056V0H-58.5ZM-44.442.09a4.921,4.921,0,0,1-2.466-.621A4.529,4.529,0,0,1-48.636-2.25a4.9,4.9,0,0,1-.63-2.484,4.9,4.9,0,0,1,.63-2.484,4.465,4.465,0,0,1,1.728-1.71,4.978,4.978,0,0,1,2.466-.612,4.978,4.978,0,0,1,2.466.612,4.4,4.4,0,0,1,1.719,1.71,4.957,4.957,0,0,1,.621,2.484,4.957,4.957,0,0,1-.621,2.484A4.465,4.465,0,0,1-41.976-.531,4.921,4.921,0,0,1-44.442.09Zm0-1.134A3.573,3.573,0,0,0-42.633-1.5a3.2,3.2,0,0,0,1.251-1.305,4.038,4.038,0,0,0,.45-1.926,4.038,4.038,0,0,0-.45-1.926,3.2,3.2,0,0,0-1.251-1.305,3.573,3.573,0,0,0-1.809-.459,3.573,3.573,0,0,0-1.809.459,3.26,3.26,0,0,0-1.26,1.305,3.973,3.973,0,0,0-.459,1.926,3.973,3.973,0,0,0,.459,1.926A3.26,3.26,0,0,0-46.251-1.5,3.573,3.573,0,0,0-44.442-1.044ZM-23.4-9.468-26.982,0h-1.206l-2.988-7.758L-34.164,0H-35.37l-3.564-9.468h1.224l2.97,8.046L-31.7-9.468h1.1l3.024,8.046,3.006-8.046Zm6.642-3.888h1.278V0h-1.278ZM-3.672-4.338h-7.92a3.384,3.384,0,0,0,1.134,2.385,3.764,3.764,0,0,0,2.592.909,4.084,4.084,0,0,0,1.62-.315,3.539,3.539,0,0,0,1.278-.927l.72.828A4.054,4.054,0,0,1-5.823-.306,5.327,5.327,0,0,1-7.9.09a5.256,5.256,0,0,1-2.583-.621A4.477,4.477,0,0,1-12.24-2.25a4.9,4.9,0,0,1-.63-2.484,5.074,5.074,0,0,1,.6-2.484,4.366,4.366,0,0,1,1.656-1.71A4.623,4.623,0,0,1-8.244-9.54a4.575,4.575,0,0,1,2.358.612,4.338,4.338,0,0,1,1.638,1.7,5.122,5.122,0,0,1,.594,2.493Zm-4.572-4.1a3.219,3.219,0,0,0-2.3.873,3.429,3.429,0,0,0-1.053,2.277h6.714A3.429,3.429,0,0,0-5.931-7.569,3.243,3.243,0,0,0-8.244-8.442ZM6.732-9.468,2.52,0H1.206L-2.988-9.468h1.332L1.89-1.4,5.472-9.468Zm9.774,5.13H8.586A3.384,3.384,0,0,0,9.72-1.953a3.764,3.764,0,0,0,2.592.909,4.084,4.084,0,0,0,1.62-.315,3.539,3.539,0,0,0,1.278-.927l.72.828A4.054,4.054,0,0,1,14.355-.306a5.327,5.327,0,0,1-2.079.4A5.256,5.256,0,0,1,9.693-.531,4.477,4.477,0,0,1,7.938-2.25a4.9,4.9,0,0,1-.63-2.484,5.074,5.074,0,0,1,.6-2.484,4.366,4.366,0,0,1,1.656-1.71,4.623,4.623,0,0,1,2.367-.612,4.575,4.575,0,0,1,2.358.612,4.338,4.338,0,0,1,1.638,1.7,5.122,5.122,0,0,1,.594,2.493Zm-4.572-4.1a3.219,3.219,0,0,0-2.3.873A3.429,3.429,0,0,0,8.586-5.292H15.3a3.429,3.429,0,0,0-1.053-2.277A3.243,3.243,0,0,0,11.934-8.442Zm7.2-4.914h1.278V0H19.134ZM34.434.108A6.877,6.877,0,0,1,31.059-.72a6.063,6.063,0,0,1-2.358-2.3A6.4,6.4,0,0,1,27.846-6.3,6.4,6.4,0,0,1,28.7-9.585a6.047,6.047,0,0,1,2.367-2.295,6.928,6.928,0,0,1,3.384-.828,7.011,7.011,0,0,1,2.592.468,5.373,5.373,0,0,1,2.016,1.368l-.846.846a5.019,5.019,0,0,0-3.726-1.494,5.476,5.476,0,0,0-2.718.684,5,5,0,0,0-1.917,1.872A5.189,5.189,0,0,0,29.16-6.3a5.189,5.189,0,0,0,.693,2.664A5,5,0,0,0,31.77-1.764a5.476,5.476,0,0,0,2.718.684,4.951,4.951,0,0,0,3.726-1.512l.846.846A5.449,5.449,0,0,1,37.035-.369,6.963,6.963,0,0,1,34.434.108ZM48.906-5.76H45.558v3.276H44.424V-5.76H41.076V-6.822h3.348v-3.294h1.134v3.294h3.348Zm10.386,0H55.944v3.276H54.81V-5.76H51.462V-6.822H54.81v-3.294h1.134v3.294h3.348Zm-111.2,27.85a5.1,5.1,0,0,1-2.511-.612,4.43,4.43,0,0,1-1.737-1.719,4.95,4.95,0,0,1-.63-2.493,4.9,4.9,0,0,1,.63-2.484,4.447,4.447,0,0,1,1.737-1.71,5.1,5.1,0,0,1,2.511-.612,4.862,4.862,0,0,1,2.187.477A3.632,3.632,0,0,1-48.2,14.332l-.954.648a2.985,2.985,0,0,0-1.188-1.053,3.525,3.525,0,0,0-1.566-.351,3.708,3.708,0,0,0-1.845.459,3.225,3.225,0,0,0-1.278,1.305,3.973,3.973,0,0,0-.459,1.926,3.96,3.96,0,0,0,.459,1.935,3.24,3.24,0,0,0,1.278,1.3,3.708,3.708,0,0,0,1.845.459,3.6,3.6,0,0,0,1.566-.342,2.917,2.917,0,0,0,1.188-1.044l.954.648a3.62,3.62,0,0,1-1.53,1.4A4.878,4.878,0,0,1-51.912,22.09Zm9.918,0a4.921,4.921,0,0,1-2.466-.621,4.529,4.529,0,0,1-1.728-1.719,4.9,4.9,0,0,1-.63-2.484,4.9,4.9,0,0,1,.63-2.484,4.465,4.465,0,0,1,1.728-1.71,4.978,4.978,0,0,1,2.466-.612,4.978,4.978,0,0,1,2.466.612,4.4,4.4,0,0,1,1.719,1.71,4.957,4.957,0,0,1,.621,2.484,4.957,4.957,0,0,1-.621,2.484,4.465,4.465,0,0,1-1.719,1.719A4.921,4.921,0,0,1-41.994,22.09Zm0-1.134a3.573,3.573,0,0,0,1.809-.459,3.2,3.2,0,0,0,1.251-1.305,4.038,4.038,0,0,0,.45-1.926,4.038,4.038,0,0,0-.45-1.926,3.2,3.2,0,0,0-1.251-1.305,3.573,3.573,0,0,0-1.809-.459,3.573,3.573,0,0,0-1.809.459,3.26,3.26,0,0,0-1.26,1.305,3.973,3.973,0,0,0-.459,1.926,3.973,3.973,0,0,0,.459,1.926A3.26,3.26,0,0,0-43.8,20.5,3.573,3.573,0,0,0-41.994,20.956Zm19.224-8.5a3.763,3.763,0,0,1,2.8,1.026,4.122,4.122,0,0,1,1.017,3.024V22h-1.278V16.636a3.214,3.214,0,0,0-.711-2.25,2.588,2.588,0,0,0-2.007-.774,3.017,3.017,0,0,0-2.322.909,3.542,3.542,0,0,0-.846,2.511V22H-27.4V16.636a3.214,3.214,0,0,0-.711-2.25,2.612,2.612,0,0,0-2.025-.774,3.023,3.023,0,0,0-2.313.909,3.519,3.519,0,0,0-.855,2.511V22h-1.278V12.532h1.224V14.26a3.415,3.415,0,0,1,1.4-1.332,4.423,4.423,0,0,1,2.07-.468,4.051,4.051,0,0,1,2.061.5,3.1,3.1,0,0,1,1.305,1.494,3.689,3.689,0,0,1,1.5-1.467A4.632,4.632,0,0,1-22.77,12.46Zm12.168,0a4.862,4.862,0,0,1,2.412.6,4.312,4.312,0,0,1,1.692,1.7,5.051,5.051,0,0,1,.612,2.5,5.088,5.088,0,0,1-.612,2.52,4.329,4.329,0,0,1-1.683,1.7,4.848,4.848,0,0,1-2.421.6,4.477,4.477,0,0,1-2.079-.477,3.94,3.94,0,0,1-1.521-1.4v5.274H-15.48V12.532h1.224V14.4a3.937,3.937,0,0,1,1.521-1.44A4.461,4.461,0,0,1-10.6,12.46Zm-.09,8.5a3.587,3.587,0,0,0,1.8-.459,3.242,3.242,0,0,0,1.269-1.305,3.973,3.973,0,0,0,.459-1.926,3.921,3.921,0,0,0-.459-1.917,3.319,3.319,0,0,0-1.269-1.3,3.533,3.533,0,0,0-1.8-.468,3.519,3.519,0,0,0-1.809.468,3.338,3.338,0,0,0-1.26,1.3,3.921,3.921,0,0,0-.459,1.917,3.973,3.973,0,0,0,.459,1.926A3.26,3.26,0,0,0-12.5,20.5,3.573,3.573,0,0,0-10.692,20.956ZM.594,22.09a4.921,4.921,0,0,1-2.466-.621A4.529,4.529,0,0,1-3.6,19.75a5.212,5.212,0,0,1,0-4.968,4.465,4.465,0,0,1,1.728-1.71A4.978,4.978,0,0,1,.594,12.46a4.978,4.978,0,0,1,2.466.612,4.4,4.4,0,0,1,1.719,1.71,5.279,5.279,0,0,1,0,4.968A4.465,4.465,0,0,1,3.06,21.469,4.921,4.921,0,0,1,.594,22.09Zm0-1.134A3.573,3.573,0,0,0,2.4,20.5a3.2,3.2,0,0,0,1.251-1.305,4.347,4.347,0,0,0,0-3.852A3.2,3.2,0,0,0,2.4,14.035a3.573,3.573,0,0,0-1.809-.459,3.573,3.573,0,0,0-1.809.459,3.26,3.26,0,0,0-1.26,1.305,4.27,4.27,0,0,0,0,3.852A3.26,3.26,0,0,0-1.215,20.5,3.573,3.573,0,0,0,.594,20.956Zm12.24-8.5a3.869,3.869,0,0,1,2.835,1.035,4.043,4.043,0,0,1,1.053,3.015V22H15.444V16.636a3.138,3.138,0,0,0-.738-2.25,2.772,2.772,0,0,0-2.106-.774,3.235,3.235,0,0,0-2.421.909,3.433,3.433,0,0,0-.891,2.511V22H8.01V12.532H9.234v1.746a3.555,3.555,0,0,1,1.449-1.341A4.638,4.638,0,0,1,12.834,12.46Zm15.642,5.2h-7.92a3.384,3.384,0,0,0,1.134,2.385,3.764,3.764,0,0,0,2.592.909,4.084,4.084,0,0,0,1.62-.315,3.539,3.539,0,0,0,1.278-.927l.72.828a4.054,4.054,0,0,1-1.575,1.152,5.327,5.327,0,0,1-2.079.4,5.256,5.256,0,0,1-2.583-.621,4.477,4.477,0,0,1-1.755-1.719,4.9,4.9,0,0,1-.63-2.484,5.074,5.074,0,0,1,.6-2.484,4.366,4.366,0,0,1,1.656-1.71A4.623,4.623,0,0,1,23.9,12.46a4.575,4.575,0,0,1,2.358.612,4.338,4.338,0,0,1,1.638,1.7,5.122,5.122,0,0,1,.594,2.493Zm-4.572-4.1a3.219,3.219,0,0,0-2.3.873,3.429,3.429,0,0,0-1.053,2.277H27.27a3.429,3.429,0,0,0-1.053-2.277A3.243,3.243,0,0,0,23.9,13.558Zm12.024-1.1a3.869,3.869,0,0,1,2.835,1.035,4.043,4.043,0,0,1,1.053,3.015V22H38.538V16.636a3.138,3.138,0,0,0-.738-2.25,2.772,2.772,0,0,0-2.106-.774,3.235,3.235,0,0,0-2.421.909,3.433,3.433,0,0,0-.891,2.511V22H31.1V12.532h1.224v1.746a3.555,3.555,0,0,1,1.449-1.341A4.638,4.638,0,0,1,35.928,12.46Zm12.348,8.964a2.42,2.42,0,0,1-.891.5,3.589,3.589,0,0,1-1.107.171,2.508,2.508,0,0,1-2.772-2.754V13.612H41.814v-1.08h1.692v-2.07h1.278v2.07h2.88v1.08h-2.88v5.652a1.789,1.789,0,0,0,.423,1.287,1.605,1.605,0,0,0,1.215.441,2.351,2.351,0,0,0,.765-.126,1.9,1.9,0,0,0,.639-.36Zm4.86.666a7.269,7.269,0,0,1-2.2-.333,4.743,4.743,0,0,1-1.647-.837l.576-1.008a4.85,4.85,0,0,0,1.494.765,5.935,5.935,0,0,0,1.872.3,3.575,3.575,0,0,0,1.917-.4,1.289,1.289,0,0,0,.621-1.143,1.028,1.028,0,0,0-.342-.819,2.272,2.272,0,0,0-.864-.45,12.324,12.324,0,0,0-1.386-.3,15.89,15.89,0,0,1-1.854-.441,2.724,2.724,0,0,1-1.2-.765,2.128,2.128,0,0,1-.495-1.494,2.341,2.341,0,0,1,.99-1.944,4.445,4.445,0,0,1,2.754-.756,7.149,7.149,0,0,1,1.836.243,5.052,5.052,0,0,1,1.512.639l-.558,1.026a4.779,4.779,0,0,0-2.79-.81,3.235,3.235,0,0,0-1.845.432,1.323,1.323,0,0,0-.621,1.134,1.119,1.119,0,0,0,.351.864,2.159,2.159,0,0,0,.873.477,14.087,14.087,0,0,0,1.44.315,16.565,16.565,0,0,1,1.818.432,2.671,2.671,0,0,1,1.17.738,2.031,2.031,0,0,1,.486,1.44,2.29,2.29,0,0,1-1.035,1.971A4.92,4.92,0,0,1,53.136,22.09Z" transform="translate(985 409)" fill="#707070"/><g transform="translate(198.5 138.5)" clip-path="url(#j)"><g transform="translate(-198.5 -138.5)"><g transform="translate(198.5 138.5)" clip-path="url(#g)"><g transform="matrix(1, 0, 0, 1, -79.5, 0)" filter="url(#l)"><g transform="translate(102 19.5)" fill="none" stroke="#ffc747" stroke-width="3"><rect width="187" height="62" rx="31" stroke="none"/><rect x="1.5" y="1.5" width="184" height="59" rx="29.5" fill="none"/></g></g><path d="M8.7-2.4H3.5L2.512,0H-.144L4.848-11.2h2.56L12.416,0H9.7ZM7.888-4.368,6.112-8.656,4.336-4.368ZM18.5-8.736a4.387,4.387,0,0,1,2.184.552,3.964,3.964,0,0,1,1.544,1.552,4.686,4.686,0,0,1,.56,2.328,4.686,4.686,0,0,1-.56,2.328A3.964,3.964,0,0,1,20.68-.424,4.387,4.387,0,0,1,18.5.128,3.324,3.324,0,0,1,15.9-.912V3.1h-2.5V-8.608h2.384v.992A3.311,3.311,0,0,1,18.5-8.736ZM18.064-1.92a2.079,2.079,0,0,0,1.576-.648A2.416,2.416,0,0,0,20.256-4.3,2.416,2.416,0,0,0,19.64-6.04a2.079,2.079,0,0,0-1.576-.648,2.079,2.079,0,0,0-1.576.648A2.416,2.416,0,0,0,15.872-4.3a2.416,2.416,0,0,0,.616,1.736A2.079,2.079,0,0,0,18.064-1.92ZM29.536-8.736a4.387,4.387,0,0,1,2.184.552,3.964,3.964,0,0,1,1.544,1.552,4.686,4.686,0,0,1,.56,2.328,4.686,4.686,0,0,1-.56,2.328A3.964,3.964,0,0,1,31.72-.424a4.387,4.387,0,0,1-2.184.552,3.324,3.324,0,0,1-2.592-1.04V3.1h-2.5V-8.608h2.384v.992A3.311,3.311,0,0,1,29.536-8.736ZM29.1-1.92a2.079,2.079,0,0,0,1.576-.648A2.416,2.416,0,0,0,31.3-4.3,2.416,2.416,0,0,0,30.68-6.04,2.079,2.079,0,0,0,29.1-6.688a2.079,2.079,0,0,0-1.576.648A2.416,2.416,0,0,0,26.912-4.3a2.416,2.416,0,0,0,.616,1.736A2.079,2.079,0,0,0,29.1-1.92Zm6.384-9.952h2.5V0h-2.5ZM40.3-8.608h2.5V0H40.3Zm1.248-1.2a1.583,1.583,0,0,1-1.12-.4A1.3,1.3,0,0,1,40-11.2a1.3,1.3,0,0,1,.432-.992,1.583,1.583,0,0,1,1.12-.4,1.623,1.623,0,0,1,1.12.384,1.231,1.231,0,0,1,.432.96,1.359,1.359,0,0,1-.432,1.032A1.565,1.565,0,0,1,41.552-9.808ZM49.28.128A5.292,5.292,0,0,1,46.808-.44,4.253,4.253,0,0,1,45.1-2.016,4.3,4.3,0,0,1,44.48-4.3,4.3,4.3,0,0,1,45.1-6.592a4.253,4.253,0,0,1,1.712-1.576,5.292,5.292,0,0,1,2.472-.568,4.79,4.79,0,0,1,2.376.568,3.369,3.369,0,0,1,1.48,1.624L51.2-5.5a2.116,2.116,0,0,0-1.936-1.184,2.19,2.19,0,0,0-1.616.64,2.357,2.357,0,0,0-.64,1.744,2.357,2.357,0,0,0,.64,1.744,2.19,2.19,0,0,0,1.616.64A2.094,2.094,0,0,0,51.2-3.1l1.936,1.056a3.436,3.436,0,0,1-1.48,1.6A4.736,4.736,0,0,1,49.28.128Zm8.768-8.864a4.48,4.48,0,0,1,3.072.952,3.643,3.643,0,0,1,1.072,2.872V0H59.856V-1.072a2.781,2.781,0,0,1-2.624,1.2,4.072,4.072,0,0,1-1.72-.336A2.565,2.565,0,0,1,54.4-1.136a2.415,2.415,0,0,1-.384-1.344,2.243,2.243,0,0,1,.9-1.888,4.607,4.607,0,0,1,2.792-.688H59.7a1.591,1.591,0,0,0-.5-1.256,2.185,2.185,0,0,0-1.488-.44,4.345,4.345,0,0,0-1.352.216,3.577,3.577,0,0,0-1.128.584l-.9-1.744a5.406,5.406,0,0,1,1.688-.768A7.562,7.562,0,0,1,58.048-8.736Zm-.192,7.184a2.174,2.174,0,0,0,1.136-.3,1.62,1.62,0,0,0,.7-.872V-3.6H57.984q-1.536,0-1.536,1.008a.9.9,0,0,0,.376.76A1.694,1.694,0,0,0,57.856-1.552ZM70-.416a2.566,2.566,0,0,1-.9.408,4.571,4.571,0,0,1-1.128.136,3.351,3.351,0,0,1-2.376-.784,3,3,0,0,1-.84-2.3V-6.5H63.424v-1.92h1.328v-2.1h2.5v2.1h2.144V-6.5H67.248v3.5a1.175,1.175,0,0,0,.28.84,1.038,1.038,0,0,0,.792.3,1.6,1.6,0,0,0,1.008-.32Zm1.408-8.192h2.5V0h-2.5Zm1.248-1.2a1.583,1.583,0,0,1-1.12-.4A1.3,1.3,0,0,1,71.1-11.2a1.3,1.3,0,0,1,.432-.992,1.583,1.583,0,0,1,1.12-.4,1.623,1.623,0,0,1,1.12.384,1.231,1.231,0,0,1,.432.96,1.359,1.359,0,0,1-.432,1.032A1.565,1.565,0,0,1,72.656-9.808ZM80.32.128A5.162,5.162,0,0,1,77.88-.44a4.222,4.222,0,0,1-1.688-1.576A4.342,4.342,0,0,1,75.584-4.3a4.342,4.342,0,0,1,.608-2.288A4.222,4.222,0,0,1,77.88-8.168a5.162,5.162,0,0,1,2.44-.568,5.114,5.114,0,0,1,2.432.568,4.236,4.236,0,0,1,1.68,1.576A4.342,4.342,0,0,1,85.04-4.3a4.342,4.342,0,0,1-.608,2.288A4.236,4.236,0,0,1,82.752-.44,5.114,5.114,0,0,1,80.32.128Zm0-2.048A2.079,2.079,0,0,0,81.9-2.568,2.416,2.416,0,0,0,82.512-4.3,2.416,2.416,0,0,0,81.9-6.04a2.079,2.079,0,0,0-1.576-.648,2.1,2.1,0,0,0-1.584.648A2.4,2.4,0,0,0,78.112-4.3a2.4,2.4,0,0,0,.624,1.736A2.1,2.1,0,0,0,80.32-1.92ZM91.936-8.736a3.542,3.542,0,0,1,2.584.96A3.807,3.807,0,0,1,95.5-4.928V0h-2.5V-4.544a2.244,2.244,0,0,0-.448-1.528,1.643,1.643,0,0,0-1.3-.5,1.986,1.986,0,0,0-1.5.584,2.418,2.418,0,0,0-.56,1.736V0H86.7V-8.608h2.384V-7.6a3.31,3.31,0,0,1,1.232-.84A4.293,4.293,0,0,1,91.936-8.736Z" transform="translate(67.5 56.5)" fill="#707070"/></g></g><g transform="translate(27.5 -138.5)"><g transform="translate(198.5 138.5)" clip-path="url(#g)"><g transform="matrix(1, 0, 0, 1, -305.5, 0)" filter="url(#o)"><g transform="translate(328 19.5)" fill="none" stroke="#ffc747" stroke-width="3"><rect width="187" height="62" rx="31" stroke="none"/><rect x="1.5" y="1.5" width="184" height="59" rx="29.5" fill="none"/></g></g><path d="M8.7-2.4H3.5L2.512,0H-.144L4.848-11.2h2.56L12.416,0H9.7ZM7.888-4.368,6.112-8.656,4.336-4.368ZM18.5-8.736a4.387,4.387,0,0,1,2.184.552,3.964,3.964,0,0,1,1.544,1.552,4.686,4.686,0,0,1,.56,2.328,4.686,4.686,0,0,1-.56,2.328A3.964,3.964,0,0,1,20.68-.424,4.387,4.387,0,0,1,18.5.128,3.324,3.324,0,0,1,15.9-.912V3.1h-2.5V-8.608h2.384v.992A3.311,3.311,0,0,1,18.5-8.736ZM18.064-1.92a2.079,2.079,0,0,0,1.576-.648A2.416,2.416,0,0,0,20.256-4.3,2.416,2.416,0,0,0,19.64-6.04a2.079,2.079,0,0,0-1.576-.648,2.079,2.079,0,0,0-1.576.648A2.416,2.416,0,0,0,15.872-4.3a2.416,2.416,0,0,0,.616,1.736A2.079,2.079,0,0,0,18.064-1.92ZM29.536-8.736a4.387,4.387,0,0,1,2.184.552,3.964,3.964,0,0,1,1.544,1.552,4.686,4.686,0,0,1,.56,2.328,4.686,4.686,0,0,1-.56,2.328A3.964,3.964,0,0,1,31.72-.424a4.387,4.387,0,0,1-2.184.552,3.324,3.324,0,0,1-2.592-1.04V3.1h-2.5V-8.608h2.384v.992A3.311,3.311,0,0,1,29.536-8.736ZM29.1-1.92a2.079,2.079,0,0,0,1.576-.648A2.416,2.416,0,0,0,31.3-4.3,2.416,2.416,0,0,0,30.68-6.04,2.079,2.079,0,0,0,29.1-6.688a2.079,2.079,0,0,0-1.576.648A2.416,2.416,0,0,0,26.912-4.3a2.416,2.416,0,0,0,.616,1.736A2.079,2.079,0,0,0,29.1-1.92Zm6.384-9.952h2.5V0h-2.5ZM40.3-8.608h2.5V0H40.3Zm1.248-1.2a1.583,1.583,0,0,1-1.12-.4A1.3,1.3,0,0,1,40-11.2a1.3,1.3,0,0,1,.432-.992,1.583,1.583,0,0,1,1.12-.4,1.623,1.623,0,0,1,1.12.384,1.231,1.231,0,0,1,.432.96,1.359,1.359,0,0,1-.432,1.032A1.565,1.565,0,0,1,41.552-9.808ZM49.28.128A5.292,5.292,0,0,1,46.808-.44,4.253,4.253,0,0,1,45.1-2.016,4.3,4.3,0,0,1,44.48-4.3,4.3,4.3,0,0,1,45.1-6.592a4.253,4.253,0,0,1,1.712-1.576,5.292,5.292,0,0,1,2.472-.568,4.79,4.79,0,0,1,2.376.568,3.369,3.369,0,0,1,1.48,1.624L51.2-5.5a2.116,2.116,0,0,0-1.936-1.184,2.19,2.19,0,0,0-1.616.64,2.357,2.357,0,0,0-.64,1.744,2.357,2.357,0,0,0,.64,1.744,2.19,2.19,0,0,0,1.616.64A2.094,2.094,0,0,0,51.2-3.1l1.936,1.056a3.436,3.436,0,0,1-1.48,1.6A4.736,4.736,0,0,1,49.28.128Zm8.768-8.864a4.48,4.48,0,0,1,3.072.952,3.643,3.643,0,0,1,1.072,2.872V0H59.856V-1.072a2.781,2.781,0,0,1-2.624,1.2,4.072,4.072,0,0,1-1.72-.336A2.565,2.565,0,0,1,54.4-1.136a2.415,2.415,0,0,1-.384-1.344,2.243,2.243,0,0,1,.9-1.888,4.607,4.607,0,0,1,2.792-.688H59.7a1.591,1.591,0,0,0-.5-1.256,2.185,2.185,0,0,0-1.488-.44,4.345,4.345,0,0,0-1.352.216,3.577,3.577,0,0,0-1.128.584l-.9-1.744a5.406,5.406,0,0,1,1.688-.768A7.562,7.562,0,0,1,58.048-8.736Zm-.192,7.184a2.174,2.174,0,0,0,1.136-.3,1.62,1.62,0,0,0,.7-.872V-3.6H57.984q-1.536,0-1.536,1.008a.9.9,0,0,0,.376.76A1.694,1.694,0,0,0,57.856-1.552ZM70-.416a2.566,2.566,0,0,1-.9.408,4.571,4.571,0,0,1-1.128.136,3.351,3.351,0,0,1-2.376-.784,3,3,0,0,1-.84-2.3V-6.5H63.424v-1.92h1.328v-2.1h2.5v2.1h2.144V-6.5H67.248v3.5a1.175,1.175,0,0,0,.28.84,1.038,1.038,0,0,0,.792.3,1.6,1.6,0,0,0,1.008-.32Zm1.408-8.192h2.5V0h-2.5Zm1.248-1.2a1.583,1.583,0,0,1-1.12-.4A1.3,1.3,0,0,1,71.1-11.2a1.3,1.3,0,0,1,.432-.992,1.583,1.583,0,0,1,1.12-.4,1.623,1.623,0,0,1,1.12.384,1.231,1.231,0,0,1,.432.96,1.359,1.359,0,0,1-.432,1.032A1.565,1.565,0,0,1,72.656-9.808ZM80.32.128A5.162,5.162,0,0,1,77.88-.44a4.222,4.222,0,0,1-1.688-1.576A4.342,4.342,0,0,1,75.584-4.3a4.342,4.342,0,0,1,.608-2.288A4.222,4.222,0,0,1,77.88-8.168a5.162,5.162,0,0,1,2.44-.568,5.114,5.114,0,0,1,2.432.568,4.236,4.236,0,0,1,1.68,1.576A4.342,4.342,0,0,1,85.04-4.3a4.342,4.342,0,0,1-.608,2.288A4.236,4.236,0,0,1,82.752-.44,5.114,5.114,0,0,1,80.32.128Zm0-2.048A2.079,2.079,0,0,0,81.9-2.568,2.416,2.416,0,0,0,82.512-4.3,2.416,2.416,0,0,0,81.9-6.04a2.079,2.079,0,0,0-1.576-.648,2.1,2.1,0,0,0-1.584.648A2.4,2.4,0,0,0,78.112-4.3a2.4,2.4,0,0,0,.624,1.736A2.1,2.1,0,0,0,80.32-1.92ZM91.936-8.736a3.542,3.542,0,0,1,2.584.96A3.807,3.807,0,0,1,95.5-4.928V0h-2.5V-4.544a2.244,2.244,0,0,0-.448-1.528,1.643,1.643,0,0,0-1.3-.5,1.986,1.986,0,0,0-1.5.584,2.418,2.418,0,0,0-.56,1.736V0H86.7V-8.608h2.384V-7.6a3.31,3.31,0,0,1,1.232-.84A4.293,4.293,0,0,1,91.936-8.736Z" transform="translate(67.5 56.5)" fill="#707070"/></g></g><g transform="translate(253.5 -138.5)"><g transform="translate(198.5 138.5)" clip-path="url(#g)"><g transform="matrix(1, 0, 0, 1, -531.5, 0)" filter="url(#r)"><g transform="translate(554 19.5)" fill="none" stroke="#ffc747" stroke-width="3"><rect width="187" height="62" rx="31" stroke="none"/><rect x="1.5" y="1.5" width="184" height="59" rx="29.5" fill="none"/></g></g><path d="M8.7-2.4H3.5L2.512,0H-.144L4.848-11.2h2.56L12.416,0H9.7ZM7.888-4.368,6.112-8.656,4.336-4.368ZM18.5-8.736a4.387,4.387,0,0,1,2.184.552,3.964,3.964,0,0,1,1.544,1.552,4.686,4.686,0,0,1,.56,2.328,4.686,4.686,0,0,1-.56,2.328A3.964,3.964,0,0,1,20.68-.424,4.387,4.387,0,0,1,18.5.128,3.324,3.324,0,0,1,15.9-.912V3.1h-2.5V-8.608h2.384v.992A3.311,3.311,0,0,1,18.5-8.736ZM18.064-1.92a2.079,2.079,0,0,0,1.576-.648A2.416,2.416,0,0,0,20.256-4.3,2.416,2.416,0,0,0,19.64-6.04a2.079,2.079,0,0,0-1.576-.648,2.079,2.079,0,0,0-1.576.648A2.416,2.416,0,0,0,15.872-4.3a2.416,2.416,0,0,0,.616,1.736A2.079,2.079,0,0,0,18.064-1.92ZM29.536-8.736a4.387,4.387,0,0,1,2.184.552,3.964,3.964,0,0,1,1.544,1.552,4.686,4.686,0,0,1,.56,2.328,4.686,4.686,0,0,1-.56,2.328A3.964,3.964,0,0,1,31.72-.424a4.387,4.387,0,0,1-2.184.552,3.324,3.324,0,0,1-2.592-1.04V3.1h-2.5V-8.608h2.384v.992A3.311,3.311,0,0,1,29.536-8.736ZM29.1-1.92a2.079,2.079,0,0,0,1.576-.648A2.416,2.416,0,0,0,31.3-4.3,2.416,2.416,0,0,0,30.68-6.04,2.079,2.079,0,0,0,29.1-6.688a2.079,2.079,0,0,0-1.576.648A2.416,2.416,0,0,0,26.912-4.3a2.416,2.416,0,0,0,.616,1.736A2.079,2.079,0,0,0,29.1-1.92Zm6.384-9.952h2.5V0h-2.5ZM40.3-8.608h2.5V0H40.3Zm1.248-1.2a1.583,1.583,0,0,1-1.12-.4A1.3,1.3,0,0,1,40-11.2a1.3,1.3,0,0,1,.432-.992,1.583,1.583,0,0,1,1.12-.4,1.623,1.623,0,0,1,1.12.384,1.231,1.231,0,0,1,.432.96,1.359,1.359,0,0,1-.432,1.032A1.565,1.565,0,0,1,41.552-9.808ZM49.28.128A5.292,5.292,0,0,1,46.808-.44,4.253,4.253,0,0,1,45.1-2.016,4.3,4.3,0,0,1,44.48-4.3,4.3,4.3,0,0,1,45.1-6.592a4.253,4.253,0,0,1,1.712-1.576,5.292,5.292,0,0,1,2.472-.568,4.79,4.79,0,0,1,2.376.568,3.369,3.369,0,0,1,1.48,1.624L51.2-5.5a2.116,2.116,0,0,0-1.936-1.184,2.19,2.19,0,0,0-1.616.64,2.357,2.357,0,0,0-.64,1.744,2.357,2.357,0,0,0,.64,1.744,2.19,2.19,0,0,0,1.616.64A2.094,2.094,0,0,0,51.2-3.1l1.936,1.056a3.436,3.436,0,0,1-1.48,1.6A4.736,4.736,0,0,1,49.28.128Zm8.768-8.864a4.48,4.48,0,0,1,3.072.952,3.643,3.643,0,0,1,1.072,2.872V0H59.856V-1.072a2.781,2.781,0,0,1-2.624,1.2,4.072,4.072,0,0,1-1.72-.336A2.565,2.565,0,0,1,54.4-1.136a2.415,2.415,0,0,1-.384-1.344,2.243,2.243,0,0,1,.9-1.888,4.607,4.607,0,0,1,2.792-.688H59.7a1.591,1.591,0,0,0-.5-1.256,2.185,2.185,0,0,0-1.488-.44,4.345,4.345,0,0,0-1.352.216,3.577,3.577,0,0,0-1.128.584l-.9-1.744a5.406,5.406,0,0,1,1.688-.768A7.562,7.562,0,0,1,58.048-8.736Zm-.192,7.184a2.174,2.174,0,0,0,1.136-.3,1.62,1.62,0,0,0,.7-.872V-3.6H57.984q-1.536,0-1.536,1.008a.9.9,0,0,0,.376.76A1.694,1.694,0,0,0,57.856-1.552ZM70-.416a2.566,2.566,0,0,1-.9.408,4.571,4.571,0,0,1-1.128.136,3.351,3.351,0,0,1-2.376-.784,3,3,0,0,1-.84-2.3V-6.5H63.424v-1.92h1.328v-2.1h2.5v2.1h2.144V-6.5H67.248v3.5a1.175,1.175,0,0,0,.28.84,1.038,1.038,0,0,0,.792.3,1.6,1.6,0,0,0,1.008-.32Zm1.408-8.192h2.5V0h-2.5Zm1.248-1.2a1.583,1.583,0,0,1-1.12-.4A1.3,1.3,0,0,1,71.1-11.2a1.3,1.3,0,0,1,.432-.992,1.583,1.583,0,0,1,1.12-.4,1.623,1.623,0,0,1,1.12.384,1.231,1.231,0,0,1,.432.96,1.359,1.359,0,0,1-.432,1.032A1.565,1.565,0,0,1,72.656-9.808ZM80.32.128A5.162,5.162,0,0,1,77.88-.44a4.222,4.222,0,0,1-1.688-1.576A4.342,4.342,0,0,1,75.584-4.3a4.342,4.342,0,0,1,.608-2.288A4.222,4.222,0,0,1,77.88-8.168a5.162,5.162,0,0,1,2.44-.568,5.114,5.114,0,0,1,2.432.568,4.236,4.236,0,0,1,1.68,1.576A4.342,4.342,0,0,1,85.04-4.3a4.342,4.342,0,0,1-.608,2.288A4.236,4.236,0,0,1,82.752-.44,5.114,5.114,0,0,1,80.32.128Zm0-2.048A2.079,2.079,0,0,0,81.9-2.568,2.416,2.416,0,0,0,82.512-4.3,2.416,2.416,0,0,0,81.9-6.04a2.079,2.079,0,0,0-1.576-.648,2.1,2.1,0,0,0-1.584.648A2.4,2.4,0,0,0,78.112-4.3a2.4,2.4,0,0,0,.624,1.736A2.1,2.1,0,0,0,80.32-1.92ZM91.936-8.736a3.542,3.542,0,0,1,2.584.96A3.807,3.807,0,0,1,95.5-4.928V0h-2.5V-4.544a2.244,2.244,0,0,0-.448-1.528,1.643,1.643,0,0,0-1.3-.5,1.986,1.986,0,0,0-1.5.584,2.418,2.418,0,0,0-.56,1.736V0H86.7V-8.608h2.384V-7.6a3.31,3.31,0,0,1,1.232-.84A4.293,4.293,0,0,1,91.936-8.736Z" transform="translate(67.5 56.5)" fill="#707070"/></g></g></g><g transform="translate(314.5 220)" clip-path="url(#t)"><line y1="64" transform="translate(0.5)" fill="none" stroke="#ffc747" stroke-width="1" stroke-dasharray="3"/></g><path d="M0,64V0" transform="translate(543 220)" fill="none" stroke="#ffc747" stroke-width="1" stroke-dasharray="3"/><line y1="64" transform="translate(771 220)" fill="none" stroke="#ffc747" stroke-width="1" stroke-dasharray="3"/></g></svg>